<?xml version="1.0" encoding="utf-8"?>
<!-- Generator: Adobe Illustrator 19.0.0, SVG Export Plug-In . SVG Version: 6.00 Build 0)  -->
<svg version="1.1" id="Layer_2" xmlns="http://www.w3.org/2000/svg" xmlns:xlink="http://www.w3.org/1999/xlink" x="0px" y="0px"
	 width="1607.9px" height="1021.9px" viewBox="0 0 1607.9 1021.9" style="enable-background:new 0 0 1607.9 1021.9;"
	 xml:space="preserve">
<style type="text/css">
	.st0{fill:#FFFFFF;stroke:#000000;stroke-miterlimit:10;}
	.st1{fill:url(#SVGID_1_);stroke:#000000;stroke-miterlimit:10;}
	.st2{fill:none;stroke:#000000;stroke-miterlimit:10;}
	.st3{fill:none;stroke:#000000;stroke-width:1.0559;stroke-miterlimit:10;}
	.st4{stroke:#000000;stroke-miterlimit:10;}
	.st5{fill:#FF0000;stroke:#000000;stroke-miterlimit:10;}
	.st6{stroke:#000000;stroke-width:0.8405;stroke-miterlimit:10;}
</style>
<g>
	<g>
		<g>
			<g>
				<polygon points="519.2,767.1 519.2,644.9 493.3,644.9 493.3,636 485.7,636 485.7,644.9 453.7,644.9 453.7,652.4 511.2,652.4 
					511.2,827.2 373.7,827.2 373.7,652.4 381.7,652.4 381.7,644.9 373.7,644.9 373.7,636 365.9,636 365.9,743.6 347.8,743.6 
					347.8,827.2 216.6,827.2 216.6,555.2 365.9,555.2 365.9,563.6 373.7,563.6 373.7,547.5 204.7,547.5 204.7,194.1 301.5,194.1 
					301.5,185.7 293.3,185.7 293.3,181.8 197.4,181.8 197.4,838.9 492.9,838.9 492.9,845.9 519.2,845.9 519.2,774.4 529.9,774.4 
					529.9,767.1 				"/>
			</g>
			<g>
				<polygon points="742.9,194.1 820,194.1 820,185.7 811.2,185.7 811.2,181.8 742.9,181.8 737.6,181.8 727.8,181.8 727.8,185.7 
					719,185.7 719,194.1 734.9,194.1 734.9,334.3 707.7,334.3 707.7,342 742.9,342 				"/>
				<polygon points="519.2,302.6 511.2,302.6 511.2,547.5 493.3,547.5 485.7,547.5 485.7,555.2 485.7,563.6 493.3,563.6 
					493.3,555.2 519.2,555.2 519.2,342 546.6,342 546.6,334.3 519.2,334.3 				"/>
				<polygon points="552.2,181.8 519.2,181.8 511.2,181.8 467.8,181.8 467.8,185.7 459,185.7 459,194.1 511.2,194.1 511.2,225.7 
					519.2,225.7 519.2,194.1 561,194.1 561,185.7 552.2,185.7 				"/>
				<polygon points="1391.7,207.2 1388.4,207.2 1277.1,207.2 1277.1,219.1 1388.4,219.1 1388.4,537.6 1336.7,537.6 1336.7,544.7 
					1388.4,544.7 1388.4,638.9 1183.5,638.9 1183.5,544.7 1183.5,537.6 1167.3,537.6 1167.3,544.7 1175.4,544.7 1175.4,638.9 
					1167.7,638.9 1167.7,646.2 1306,646.2 1306,650.1 1388.4,650.1 1388.4,781.1 1306.2,781.1 1306.2,789.2 1361,789.2 1361,826.1 
					1313.5,826.1 1313.5,815.5 1306.2,815.5 1306.2,822.8 1086.6,822.8 1086.6,646.2 1095,646.2 1095,638.9 1086.6,638.9 
					1080.9,638.9 1078.7,638.9 1061.7,638.9 1061.7,646.2 1078.7,646.2 1078.7,727.1 977.2,727.1 977.2,646.2 994,646.2 994,638.9 
					984.9,638.9 984.9,544.6 994,544.6 994,533.1 909.4,533.1 909.4,544.6 977.2,544.6 977.2,628.6 966.4,628.6 966.4,827.2 
					648.1,827.2 648.1,774.4 648.1,767.1 640.1,767.1 606.1,767.1 606.1,774.4 640.1,774.4 640.1,845.9 666.4,845.9 666.4,838.9 
					995,838.9 995,827.2 977.2,827.2 977.2,746.9 1067.1,746.9 1067.1,826.1 1050.4,826.1 1050.4,838.9 1396.8,838.9 1396.8,207.2 
									"/>
				<polygon points="1073.9,533.1 1066.1,533.1 1066.1,544.6 1078.9,544.6 1078.9,544.7 1095.1,544.7 1095.1,537.6 1086.4,537.6 
					1086.4,219.1 1148.9,219.1 1148.9,207.2 1081.9,207.2 1081.9,181.8 986.9,181.8 986.9,185.7 978.1,185.7 978.1,194.1 
					1073.9,194.1 				"/>
			</g>
		</g>
		<rect x="231.1" y="551" class="st0" width="26.4" height="7.8"/>
		<rect x="1083" y="782.2" class="st0" width="6.9" height="26.3"/>
		<g>
			<linearGradient id="SVGID_1_" gradientUnits="userSpaceOnUse" x1="224.9481" y1="789.5056" x2="339.6197" y2="789.5056">
				<stop  offset="0" style="stop-color:#FFFFFF"/>
				<stop  offset="1" style="stop-color:#000000"/>
			</linearGradient>
			<ellipse class="st1" cx="282.3" cy="789.5" rx="57.3" ry="31.9"/>
			<g>
				<g>
					<ellipse class="st2" cx="253.9" cy="701.7" rx="21.2" ry="16.5"/>
					<path class="st2" d="M236.2,697.1c2.5-6.3,10.1-10.9,19-10.9c11,0,19.9,6.9,19.9,15.5c0,8.6-8.9,15.5-19.9,15.5
						c-8.9,0-16.5-4.6-19-10.9"/>
					<line class="st2" x1="236.2" y1="692.5" x2="236.2" y2="710.9"/>
					<line class="st2" x1="243.7" y1="696.3" x2="236.2" y2="696.3"/>
					<line class="st2" x1="243.7" y1="707.3" x2="236.2" y2="707.3"/>
				</g>
				<polyline class="st2" points="229.3,723.6 232.5,721.1 232.5,681.4 229.3,678.8 				"/>
			</g>
			<g>
				<g>
					<path class="st0" d="M699.2,585.3c0-8,6.5-14.5,14.5-14.5s14.5,6.5,14.5,14.5"/>
					<path class="st0" d="M752.1,585.3c0-8,6.5-14.5,14.5-14.5s14.5,6.5,14.5,14.5"/>
					<path class="st0" d="M805,665.1H676.9v-64.7c0-8.4,6.8-15.2,15.2-15.2h97.8c8.4,0,15.2,6.8,15.2,15.2V665.1z"/>
				</g>
				<g>
					<rect x="529.4" y="691.3" class="st3" width="4.9" height="76.3"/>
					<path class="st3" d="M534.3,691.3c40.2,0,72.4,31.3,72.4,76.3"/>
				</g>
				<g>
					<circle class="st4" cx="241" cy="607.1" r="1.7"/>
					<g>
						<ellipse class="st2" cx="245.6" cy="607.1" rx="17" ry="21.8"/>
						<ellipse class="st2" cx="247.3" cy="607.1" rx="12.9" ry="17"/>
						<polyline class="st2" points="272.5,551.7 272.5,658.1 229.3,658.1 229.3,745.1 212.9,745.1 						"/>
						<g>
							<rect x="381.2" y="652" class="st2" width="4.6" height="72.3"/>
							<path class="st2" d="M385.9,724.3c38.1,0,68.4-29.6,68.4-72.3"/>
						</g>
						<g>
							<rect x="413.9" y="632" class="st2" width="72.3" height="4.6"/>
							<path class="st2" d="M413.9,632c0-38.1,29.6-68.9,72.3-68.9"/>
						</g>
						<g>
							<rect x="294.1" y="563.1" class="st2" width="72.3" height="4.6"/>
							<path class="st2" d="M294.1,567.7c0,38.1,29.6,68.8,72.3,68.8"/>
						</g>
					</g>
				</g>
				<g>
					<g>
						<rect x="1094.5" y="465.3" class="st2" width="4.6" height="72.3"/>
						<path class="st2" d="M1099.1,465.3c38.1,0,68.7,29.6,68.7,72.3"/>
					</g>
					<g>
						<rect x="1183" y="538.1" class="st2" width="80.2" height="3.3"/>
						<rect x="1256.7" y="541.4" class="st2" width="80.2" height="2.8"/>
					</g>
				</g>
				<g>
					<g>
						<circle class="st2" cx="859.6" cy="807.8" r="8.8"/>
						<circle class="st2" cx="831" cy="809.4" r="6.8"/>
					</g>
					<g>
						<rect x="708.5" y="775.6" class="st2" width="70.3" height="47"/>
						<circle class="st2" cx="831" cy="785.7" r="8.8"/>
						<circle class="st2" cx="859.6" cy="784.3" r="6.8"/>
						<path class="st2" d="M736.4,811.6h-17.1c-3.7,0-6.6-3-6.6-6.6v-18.2c0-3.7,3-6.6,6.6-6.6h17.1c3.7,0,6.6,3,6.6,6.6V805
							C743,808.6,740.1,811.6,736.4,811.6z"/>
						<path class="st2" d="M768.3,811.6h-17.1c-3.7,0-6.6-3-6.6-6.6v-18.2c0-3.7,3-6.6,6.6-6.6h17.1c3.7,0,6.6,3,6.6,6.6V805
							C775,808.6,772,811.6,768.3,811.6z"/>
						<g>
							<rect x="910.6" y="548.5" class="st2" width="60.3" height="76.8"/>
						</g>
						<polygon class="st2" points="967.9,629.5 910.6,629.5 910.6,771.8 878.8,771.8 878.8,831.6 971.8,831.6 971.8,636.9 						"/>
						<rect x="910.6" y="675.3" class="st5" width="56.6" height="1.4"/>
						<g>
							<rect x="812.6" y="771.8" class="st2" width="63.9" height="50.8"/>
						</g>
						<g>
							<rect x="643.4" y="771.8" class="st2" width="166.8" height="58.8"/>
						</g>
					</g>
				</g>
				<g>
					<line class="st2" x1="1306.7" y1="787.5" x2="1306.7" y2="818.8"/>
					<g>
						<polyline class="st2" points="1306.9,810.6 1220.9,810.6 1220.9,767.6 1080.1,767.6 						"/>
						<g>
							<ellipse class="st2" cx="1153.7" cy="791.6" rx="17" ry="12.9"/>
							<circle class="st4" cx="1153.7" cy="797.9" r="1.7"/>
							<g>
								<ellipse class="st2" cx="1351.6" cy="716.1" rx="31.6" ry="56.8"/>
								<rect x="996" y="650.2" class="st2" width="64" height="64.2"/>
								<circle class="st2" cx="1023.2" cy="782.2" r="24.1"/>
								<rect x="993.2" y="829.6" class="st2" width="63.3" height="4.5"/>
								<ellipse class="st2" cx="1153.7" cy="793.3" rx="21.8" ry="17"/>
								<g>
									<path class="st2" d="M1046.2,592.2l-49.7,49.8l-2.9-2.6l49.8-50.4c11.7,12.7,18.9,30.3,18.9,50.9"/>
								</g>
								<g>
									<rect x="1094.5" y="645.7" class="st2" width="4.6" height="72.3"/>
									<path class="st2" d="M1099.2,718c38.1,0,69-29.6,69-72.3"/>
								</g>
								<g>
									<g>
										<ellipse class="st2" cx="1263.2" cy="786" rx="16.5" ry="21.2"/>
										<path class="st2" d="M1258.7,803.7c-6.3-2.5-10.9-10.1-10.9-19c0-11,6.9-19.9,15.5-19.9c8.6,0,15.5,8.9,15.5,19.9
											c0,8.9-4.6,16.5-10.9,19"/>
										<line class="st2" x1="1254.1" y1="803.7" x2="1272.4" y2="803.7"/>
										<line class="st2" x1="1257.8" y1="796.2" x2="1257.8" y2="803.7"/>
										<line class="st2" x1="1268.9" y1="796.2" x2="1268.9" y2="803.7"/>
									</g>
									<polyline class="st2" points="1285.2,810.6 1282.7,807.5 1243,807.5 1240.3,810.6 									"/>
								</g>
							</g>
						</g>
					</g>
				</g>
				<g>
					<g>
						<rect x="546.3" y="334.7" class="st2" width="80.2" height="3.3"/>
						<rect x="626.5" y="338.1" class="st2" width="81.6" height="3.4"/>
						<g>
							<line class="st2" x1="505.9" y1="225.2" x2="528.3" y2="225.2"/>
							<line class="st2" x1="505.9" y1="302.6" x2="528.3" y2="302.6"/>
							<line class="st2" x1="524" y1="219.1" x2="524" y2="310.4"/>
							<line class="st2" x1="515" y1="219.1" x2="515" y2="310.4"/>
							<line class="st2" x1="511.8" y1="219.1" x2="511.8" y2="310.4"/>
							<line class="st2" x1="518.7" y1="221.2" x2="518.7" y2="232.6"/>
							<line class="st2" x1="518.7" y1="294.6" x2="518.7" y2="306"/>
						</g>
						<g>
							<line class="st2" x1="1149" y1="221.2" x2="1149" y2="198.1"/>
							<line class="st2" x1="1276.9" y1="221.2" x2="1276.9" y2="198.1"/>
							<line class="st2" x1="1142.9" y1="203.2" x2="1284.6" y2="203.2"/>
							<line class="st2" x1="1142.9" y1="212.2" x2="1284.6" y2="212.2"/>
							<line class="st2" x1="1142.9" y1="215.4" x2="1284.6" y2="215.4"/>
							<line class="st2" x1="1144.9" y1="207.8" x2="1156.4" y2="207.8"/>
							<line class="st2" x1="1268.8" y1="207.8" x2="1280.2" y2="207.8"/>
						</g>
						<g>
							<line class="st2" x1="820" y1="199.1" x2="820" y2="176.1"/>
							<line class="st2" x1="978.3" y1="199.1" x2="978.3" y2="176.1"/>
							<line class="st2" x1="813.9" y1="181.2" x2="986" y2="181.2"/>
							<line class="st2" x1="813.9" y1="190.2" x2="986" y2="190.2"/>
							<line class="st2" x1="813.9" y1="193.4" x2="986" y2="193.4"/>
							<line class="st2" x1="815.9" y1="186.2" x2="827.4" y2="186.2"/>
							<line class="st2" x1="970.2" y1="186.2" x2="981.6" y2="186.2"/>
							<line class="st2" x1="896.5" y1="199.1" x2="896.5" y2="176.1"/>
							<line class="st2" x1="901.6" y1="199.1" x2="901.6" y2="176.1"/>
							<line class="st2" x1="889.5" y1="186.2" x2="907.9" y2="186.2"/>
						</g>
						<g>
							<line class="st2" x1="301.5" y1="199.1" x2="301.5" y2="176.1"/>
							<line class="st2" x1="459.8" y1="199.1" x2="459.8" y2="176.1"/>
							<line class="st2" x1="295.4" y1="181.2" x2="465.4" y2="181.2"/>
							<line class="st2" x1="295.4" y1="190.2" x2="467.5" y2="190.2"/>
							<line class="st2" x1="295.4" y1="193.4" x2="467.5" y2="193.4"/>
							<line class="st2" x1="297.4" y1="186.2" x2="308.9" y2="186.2"/>
							<line class="st2" x1="451.7" y1="186.2" x2="463.2" y2="186.2"/>
							<line class="st2" x1="378" y1="199.1" x2="378" y2="176.1"/>
							<line class="st2" x1="383.1" y1="199.1" x2="383.1" y2="176.1"/>
							<line class="st2" x1="371.1" y1="186.2" x2="389.4" y2="186.2"/>
						</g>
					</g>
					<polyline class="st2" points="546.3,334.7 546.3,332.1 708,332.1 708,338.1 					"/>
				</g>
			</g>
		</g>
		<g>
			<g>
				<polyline class="st4" points="1345.4,337.6 1345.4,310.6 1383.7,310.6 1383.7,438.9 1345.4,438.9 1345.4,409.9 				"/>
				<rect x="1207.4" y="310.6" class="st4" width="8" height="128.3"/>
				<rect x="1088.8" y="314.4" class="st4" width="42.3" height="120.7"/>
				<polyline class="st4" points="1345.4,409.9 1345.4,438.9 1215.4,438.9 1215.4,310.6 1345.4,310.6 1345.4,337.6 				"/>
				<path class="st0" d="M1345.4,409.9L1345.4,409.9c-3.4,0-6.1-2.7-6.1-6.1v-60c0-3.4,2.7-6.1,6.1-6.1l0,0c3.4,0,6.1,2.7,6.1,6.1
					v60C1351.5,407.1,1348.8,409.9,1345.4,409.9z"/>
				<rect x="1347.5" y="442.7" class="st4" width="36.2" height="55.3"/>
				<rect x="1347.5" y="251.2" class="st4" width="36.2" height="55.3"/>
			</g>
			<g>
				<g>
					<polyline class="st4" points="245.6,341.6 245.6,314.6 207.3,314.6 207.3,442.9 245.6,442.9 245.6,413.9 					"/>
					<rect x="375.6" y="314.6" class="st4" width="8" height="128.3"/>
					<rect x="464.5" y="318.4" class="st4" width="42.3" height="120.7"/>
					<polyline class="st4" points="245.6,413.9 245.6,442.9 375.6,442.9 375.6,314.6 245.6,314.6 245.6,341.6 					"/>
					<path class="st0" d="M245.6,413.9L245.6,413.9c3.4,0,6.1-2.7,6.1-6.1v-60c0-3.4-2.7-6.1-6.1-6.1h0c-3.4,0-6.1,2.7-6.1,6.1v60
						C239.5,411.1,242.2,413.9,245.6,413.9z"/>
					<rect x="207.3" y="446.7" class="st4" width="36.2" height="55.3"/>
					<g>
						<rect x="207.3" y="221.9" class="st4" width="51.1" height="88.7"/>
						<path class="st4" d="M258.4,239.5c13.6,1.3,24.3,12.8,24.3,26.7c0,13.9-10.6,25.4-24.1,26.7"/>
					</g>
				</g>
				<path class="st4" d="M438.4,227.9l36.7,36.9l23.9-24.7c10-10.4,9.6-26.9-0.9-36.7l0,0c-10.2-9.5-26.1-9.2-35.9,0.7L438.4,227.9z
					"/>
			</g>
			<g>
				<g>
					<path class="st4" d="M807.2,336.5h-30.2c-14.7,0-26.6-11.9-26.6-26.6v0c0-14.7,11.9-26.6,26.6-26.6h30.2V336.5z"/>
					<path class="st4" d="M807.2,392.9h-30.2c-14.7,0-26.6-11.9-26.6-26.6v0c0-14.7,11.9-26.6,26.6-26.6h30.2V392.9z"/>
				</g>
				<rect x="848.4" y="296.4" class="st4" width="110.8" height="65.8"/>
				<rect x="820" y="198.4" class="st4" width="158.1" height="72"/>
				<circle class="st4" cx="778.9" cy="233.5" r="30.8"/>
				<circle class="st4" cx="1016" cy="233.9" r="22.4"/>
				<rect x="1032.6" y="274.6" class="st4" width="37.3" height="156.5"/>
			</g>
			<g>
				<path class="st4" d="M648.8,403.1l17.3-11.5c0.2-0.1,0.5-0.2,0.7-0.1c8.9,3.6,19.9,17.1,22.2,21.3c0.1,0.3,0.1,0.6,0,0.8
					l-13.1,20L648.8,403.1z"/>
				<path class="st4" d="M594.7,431.3l-11.5-17.3c-0.1-0.2-0.2-0.5-0.1-0.7c3.6-8.9,17.1-19.9,21.3-22.2c0.3-0.1,0.6-0.1,0.8,0
					l20,13.1L594.7,431.3z"/>
				<path class="st4" d="M622.9,485.4l-17.3,11.5c-0.2,0.1-0.5,0.2-0.7,0.1c-8.9-3.6-19.9-17.1-22.2-21.3c-0.1-0.3-0.1-0.6,0-0.8
					l13.1-20L622.9,485.4z"/>
				<circle class="st4" cx="635.9" cy="444.3" r="44.8"/>
				<path class="st4" d="M677,457.2l11.5,17.3c0.1,0.2,0.2,0.5,0.1,0.7c-3.6,8.9-17.1,19.9-21.3,22.2c-0.3,0.1-0.6,0.1-0.8,0
					l-20-13.1L677,457.2z"/>
			</g>
		</g>
		<g>
			<path class="st6" d="M697.7,252.4l-30.2,30.2c-1.5,1.5-3.9,1.5-5.4,0l-30.2-30.2c-1.5-1.5-1.5-3.9,0-5.4l30.2-30.2
				c1.5-1.5,3.9-1.5,5.4,0l30.2,30.2C699.2,248.4,699.2,250.9,697.7,252.4z"/>
			<path class="st6" d="M552.7,252.4l30.2,30.2c1.5,1.5,3.9,1.5,5.4,0l30.2-30.2c1.5-1.5,1.5-3.9,0-5.4l-30.2-30.2
				c-1.5-1.5-3.9-1.5-5.4,0l-30.2,30.2C551.2,248.4,551.2,250.9,552.7,252.4z"/>
			<circle class="st6" cx="625.9" cy="276.3" r="15"/>
		</g>
	</g>
	<g>
		<g>
			<path class="st4" d="M673.1,795.7c0,0.5,0,1.1-0.1,1.6c-0.1,0.5-0.2,1-0.4,1.5c-0.2,0.5-0.5,0.9-0.8,1.3c-0.4,0.4-0.9,0.7-1.5,1
				c-0.6,0.2-1.3,0.3-2,0.3h-4.8v-14h4.8c0.7,0,1.4,0.1,2,0.3c0.6,0.2,1.1,0.5,1.5,1c0.4,0.4,0.6,0.8,0.8,1.2
				c0.2,0.4,0.3,0.9,0.4,1.4c0.1,0.5,0.1,1,0.1,1.5c0,0.5,0,1,0,1.5C673.1,794.7,673.1,795.2,673.1,795.7z M671.6,792.9
				c0-0.4,0-0.8-0.1-1.2s-0.1-0.7-0.3-1.1c-0.1-0.3-0.3-0.6-0.5-0.9c-0.4-0.4-0.8-0.6-1.2-0.8s-1-0.2-1.5-0.2h-3V800h3
				c0.5,0,1.1-0.1,1.5-0.2c0.5-0.2,0.9-0.4,1.2-0.8c0.2-0.2,0.4-0.6,0.5-0.9c0.1-0.4,0.2-0.8,0.3-1.2c0.1-0.4,0.1-0.9,0.1-1.3
				c0-0.5,0-0.9,0-1.3S671.6,793.3,671.6,792.9z"/>
			<path class="st4" d="M687.3,801.4h-1.4l-3.1-11.2l-3.1,11.2h-1.4l-3.6-14h1.6l2.7,11.3l3.1-11.3h1.3l3.1,11.3l2.7-11.3h1.6
				L687.3,801.4z"/>
		</g>
		<g>
			<path class="st4" d="M728,723.8l-6.1-10.6l-4.2,5v5.6h-2.1v-20h2.1v11.5l9.3-11.5h2.6l-6.3,7.7l7.2,12.3H728z"/>
			<path class="st4" d="M733.8,723.8v-20h2.1v20H733.8z"/>
			<path class="st4" d="M747.6,705.7v18.1h-2.1v-18.1h-5.8v-1.9h13.7v1.9H747.6z"/>
			<path class="st4" d="M768.8,720.5c-0.4,0.7-0.9,1.4-1.5,1.9c-0.6,0.5-1.3,0.9-2.1,1.2s-1.6,0.4-2.5,0.4c-1,0-1.9-0.2-2.8-0.5
				s-1.6-0.9-2.3-1.5c-0.5-0.5-0.8-1-1.1-1.5s-0.4-1.1-0.6-1.7c-0.1-0.6-0.2-1.3-0.2-2.1s0-1.7,0-2.8c0-1.1,0-2,0-2.8
				s0.1-1.5,0.2-2.1c0.1-0.6,0.3-1.2,0.6-1.7s0.6-1,1.1-1.5c0.7-0.7,1.4-1.2,2.3-1.5s1.8-0.5,2.8-0.5c0.9,0,1.7,0.1,2.5,0.4
				c0.8,0.3,1.5,0.7,2.1,1.2c0.6,0.5,1.1,1.1,1.5,1.9c0.4,0.7,0.7,1.6,0.9,2.5h-2.2c-0.3-1.2-0.8-2.2-1.6-2.9
				c-0.8-0.7-1.9-1.1-3.1-1.1c-0.7,0-1.3,0.1-1.9,0.4c-0.6,0.2-1.1,0.6-1.6,1c-0.3,0.3-0.6,0.7-0.8,1c-0.2,0.4-0.3,0.8-0.4,1.3
				c-0.1,0.5-0.2,1.1-0.2,1.9c0,0.7,0,1.6,0,2.7s0,1.9,0,2.7c0,0.7,0.1,1.3,0.2,1.9c0.1,0.5,0.2,1,0.4,1.3c0.2,0.4,0.4,0.7,0.8,1
				c0.4,0.4,0.9,0.8,1.6,1c0.6,0.2,1.2,0.4,1.9,0.4c1.3,0,2.3-0.4,3.1-1.1c0.8-0.7,1.4-1.7,1.7-2.9h2.1
				C769.5,719,769.2,719.8,768.8,720.5z"/>
			<path class="st4" d="M786,723.8v-9.1h-9.5v9.1h-2.1v-20h2.1v8.9h9.5v-8.9h2.1v20H786z"/>
			<path class="st4" d="M793.9,723.8v-20h12.4v1.9h-10.3v7h8.8v1.9h-8.8v7.2h10.3v1.9H793.9z"/>
			<path class="st4" d="M823.5,723.8l-10.6-16v16h-2.1v-20h2l10.6,16v-16h2.1v20H823.5z"/>
		</g>
		<g>
			<path class="st4" d="M543.6,673.4v-20H556v1.9h-10.3v7h8.8v1.9h-8.8v7.2H556v1.9H543.6z"/>
			<path class="st4" d="M573.2,673.4l-10.6-16v16h-2.1v-20h2l10.6,16v-16h2.1v20H573.2z"/>
			<path class="st4" d="M586.8,655.4v18.1h-2.1v-18.1h-5.8v-1.9h13.7v1.9H586.8z"/>
			<path class="st4" d="M607.8,673.4l-4.5-8.9h-4.8v8.9h-2.1v-20h7.7c0.9,0,1.7,0.1,2.4,0.4c0.7,0.3,1.4,0.6,1.9,1.1
				c0.5,0.5,0.9,1.1,1.2,1.8c0.3,0.7,0.4,1.5,0.4,2.3c0,1.5-0.4,2.7-1.2,3.6c-0.8,0.9-1.9,1.5-3.1,1.8l4.7,9.1H607.8z M606.7,656.3
				c-0.7-0.6-1.7-0.9-2.9-0.9h-5.3v7.3h5.3c1.2,0,2.1-0.3,2.9-0.9c0.7-0.6,1.1-1.5,1.1-2.7C607.8,657.8,607.4,656.9,606.7,656.3z"/>
			<path class="st4" d="M620.1,665.2v8.2H618v-8.2l-5.9-11.7h2.3l4.7,9.6l4.7-9.6h2.3L620.1,665.2z"/>
		</g>
		<g>
			<path class="st4" d="M600,533.8c0,0.8-0.1,1.5-0.2,2.3c-0.1,0.7-0.3,1.5-0.6,2.1c-0.3,0.7-0.7,1.3-1.2,1.8
				c-0.6,0.6-1.3,1.1-2.2,1.4s-1.8,0.5-2.9,0.5h-6.9v-20.2h6.9c1.1,0,2,0.2,2.9,0.5c0.9,0.3,1.6,0.8,2.2,1.4
				c0.5,0.5,0.9,1.1,1.2,1.7c0.3,0.6,0.5,1.3,0.6,2c0.1,0.7,0.2,1.4,0.2,2.1c0,0.7,0,1.4,0,2.1S600,533,600,533.8z M597.9,529.7
				c0-0.6-0.1-1.2-0.1-1.8c-0.1-0.6-0.2-1.1-0.4-1.6s-0.5-0.9-0.8-1.3c-0.5-0.5-1.1-0.9-1.8-1.1c-0.7-0.2-1.4-0.3-2.2-0.3h-4.4V540
				h4.4c0.8,0,1.5-0.1,2.2-0.3c0.7-0.2,1.3-0.6,1.8-1.1c0.3-0.4,0.6-0.8,0.8-1.3c0.2-0.5,0.3-1.1,0.4-1.7c0.1-0.6,0.1-1.3,0.1-1.9
				c0-0.7,0-1.3,0-1.9C597.9,531,597.9,530.3,597.9,529.7z"/>
			<path class="st4" d="M605.1,541.9v-20.2h2.2v20.2H605.1z"/>
			<path class="st4" d="M626,541.9l-10.7-16.2v16.2h-2.2v-20.2h2l10.7,16.1v-16.1h2.2v20.2H626z"/>
			<path class="st4" d="M633.9,541.9v-20.2h2.2v20.2H633.9z"/>
			<path class="st4" d="M654.7,541.9L644,525.7v16.2h-2.2v-20.2h2l10.7,16.1v-16.1h2.2v20.2H654.7z"/>
			<path class="st4" d="M675.6,537.5c-0.3,0.8-0.7,1.6-1.3,2.2c-0.7,0.8-1.5,1.4-2.5,1.7c-0.9,0.4-1.9,0.6-2.9,0.6
				c-1,0-1.9-0.2-2.8-0.5c-0.9-0.4-1.7-0.9-2.3-1.6c-0.5-0.5-0.8-1-1.1-1.5c-0.3-0.5-0.4-1.1-0.6-1.7c-0.1-0.6-0.2-1.4-0.2-2.2
				c0-0.8,0-1.7,0-2.8s0-2,0-2.8c0-0.8,0.1-1.5,0.2-2.2c0.1-0.6,0.3-1.2,0.6-1.7c0.3-0.5,0.6-1,1.1-1.5c1.4-1.4,3.1-2.1,5.2-2.1
				c1,0,1.8,0.1,2.7,0.4c0.8,0.3,1.5,0.7,2.1,1.2c0.6,0.5,1.1,1.2,1.5,1.9c0.4,0.7,0.7,1.5,0.8,2.4h-2.2c-0.3-1.3-0.9-2.3-1.7-3
				c-0.9-0.7-1.9-1.1-3.2-1.1c-0.7,0-1.3,0.1-1.9,0.4c-0.6,0.3-1.1,0.6-1.6,1.1c-0.3,0.3-0.6,0.7-0.8,1c-0.2,0.4-0.3,0.8-0.4,1.3
				c-0.1,0.5-0.2,1.1-0.2,1.9s0,1.6,0,2.7s0,2,0,2.7s0.1,1.4,0.2,1.9c0.1,0.5,0.2,1,0.4,1.3c0.2,0.4,0.4,0.7,0.8,1
				c0.4,0.5,1,0.8,1.6,1c0.6,0.2,1.3,0.4,1.9,0.4c0.7,0,1.4-0.1,2.1-0.4c0.7-0.3,1.2-0.7,1.7-1.3c0.4-0.5,0.7-1,0.9-1.6
				c0.2-0.6,0.3-1.3,0.3-2.1v-1.5h-5v-1.9h7.1v3.2C676,535.7,675.9,536.7,675.6,537.5z"/>
		</g>
		<g>
			<path class="st4" d="M933.9,592.5l-3.3-6.4h-3.4v6.4h-1.5v-14.3h5.5c0.6,0,1.2,0.1,1.7,0.3c0.5,0.2,1,0.4,1.3,0.8
				c0.4,0.3,0.7,0.8,0.9,1.3c0.2,0.5,0.3,1.1,0.3,1.7c0,1-0.3,1.9-0.9,2.6c-0.6,0.7-1.3,1.1-2.3,1.3l3.4,6.5H933.9z M933.1,580.2
				c-0.5-0.4-1.2-0.7-2.1-0.7h-3.8v5.3h3.8c0.8,0,1.5-0.2,2.1-0.6c0.5-0.4,0.8-1.1,0.8-2C933.9,581.3,933.6,580.6,933.1,580.2z"/>
			<path class="st4" d="M939.5,587.9c0,1.1,0.2,1.9,0.7,2.5c0.5,0.6,1.2,0.9,2.2,0.9c0.6,0,1.1-0.1,1.4-0.3c0.4-0.2,0.8-0.5,1.2-0.9
				l1,0.9c-0.3,0.3-0.5,0.5-0.8,0.7c-0.2,0.2-0.5,0.4-0.8,0.5c-0.3,0.1-0.6,0.2-0.9,0.3c-0.3,0.1-0.7,0.1-1.1,0.1
				c-0.7,0-1.3-0.1-1.8-0.3c-0.5-0.2-1-0.5-1.4-0.9c-0.4-0.4-0.7-0.9-0.9-1.6c-0.2-0.6-0.3-1.4-0.3-2.3c0-1.6,0.4-2.9,1.1-3.7
				s1.7-1.3,3-1.3c1.3,0,2.3,0.4,3,1.3c0.7,0.9,1.1,2,1.1,3.5v0.7H939.5z M944.7,586.3c0-0.1,0-0.3,0-0.4c0-0.1,0-0.2-0.1-0.4
				c0-0.1-0.1-0.2-0.1-0.4c-0.2-0.5-0.5-0.8-0.9-1.1s-0.9-0.4-1.4-0.4c-0.5,0-1,0.1-1.4,0.4s-0.7,0.6-0.9,1.1
				c-0.1,0.3-0.2,0.5-0.2,0.7c0,0.2-0.1,0.5-0.1,0.9h5.2C944.8,586.6,944.7,586.5,944.7,586.3z"/>
			<path class="st4" d="M951.1,583.7v8.7h-1.4v-8.7h-1.3v-1.1h1.3v-1.9c0-0.4,0-0.7,0.2-1c0.1-0.3,0.3-0.6,0.5-0.8
				c0.2-0.2,0.5-0.4,0.8-0.6c0.3-0.1,0.7-0.2,1.1-0.2h1v1.2h-0.8c-0.5,0-0.8,0.1-1,0.4c-0.2,0.3-0.3,0.6-0.3,1.1v1.8h2.1v1.1H951.1z
				"/>
			<path class="st4" d="M954.6,592.5v-1.9h1.9v1.9H954.6z"/>
		</g>
		<g>
			<path class="st4" d="M933.4,652.9c-0.2,0.5-0.5,1-0.9,1.3c-0.4,0.4-0.9,0.6-1.4,0.8c-0.5,0.2-1.1,0.3-1.8,0.3h-3.8v5.9h-1.5
				v-14.3h5.3c0.7,0,1.3,0.1,1.8,0.3c0.5,0.2,1,0.5,1.4,0.8c0.4,0.4,0.7,0.8,0.9,1.3c0.2,0.5,0.3,1.1,0.3,1.7
				C933.7,651.8,933.6,652.3,933.4,652.9z M931.3,649c-0.6-0.5-1.3-0.7-2.2-0.7h-3.7v5.7h3.7c0.9,0,1.6-0.2,2.2-0.7
				c0.6-0.5,0.8-1.2,0.8-2.1C932.2,650.2,931.9,649.4,931.3,649z"/>
			<path class="st4" d="M941.8,661.2v-0.9c-0.4,0.4-0.8,0.7-1.2,0.8c-0.4,0.2-1,0.2-1.6,0.2c-0.7,0-1.2-0.1-1.7-0.2
				c-0.4-0.1-0.8-0.4-1.1-0.7c-0.2-0.2-0.4-0.5-0.6-0.9c-0.1-0.4-0.2-0.7-0.2-1.1c0-0.9,0.3-1.6,0.9-2.1c0.6-0.5,1.4-0.8,2.5-0.8h3
				v-0.9c0-0.7-0.2-1.3-0.6-1.6c-0.4-0.4-1-0.5-2-0.5c-0.6,0-1.1,0.1-1.5,0.3s-0.7,0.5-1,0.9l-1-0.9c0.4-0.6,0.9-1,1.5-1.2
				c0.5-0.2,1.2-0.3,2-0.3c1.3,0,2.3,0.3,3,0.8s1,1.4,1,2.5v6.7H941.8z M941.8,656.7H939c-1.5,0-2.2,0.6-2.2,1.8
				c0,0.6,0.2,1,0.5,1.3c0.4,0.3,0.9,0.4,1.7,0.4c0.4,0,0.8,0,1.2-0.1s0.7-0.3,1-0.6c0.3-0.3,0.5-0.9,0.5-1.7V656.7z"/>
			<path class="st4" d="M953.1,661.2v-6.1c0-0.9-0.2-1.5-0.7-2c-0.4-0.4-1-0.7-1.8-0.7c-0.8,0-1.3,0.2-1.8,0.7
				c-0.4,0.4-0.7,1.1-0.7,2v6.1h-1.4v-9.9h1.4v1.1c0.3-0.4,0.8-0.7,1.2-0.9s1-0.3,1.5-0.3c1.1,0,1.9,0.3,2.5,0.9
				c0.7,0.7,1,1.6,1,2.8v6.3H953.1z"/>
			<path class="st4" d="M958,661.2v-1.9h1.9v1.9H958z"/>
		</g>
		<g>
			<path class="st4" d="M1202.3,699.6c-0.3,0.7-0.7,1.3-1.3,1.8c-0.5,0.5-1.2,0.9-2,1.1c-0.8,0.2-1.6,0.4-2.5,0.4h-8.1v-20.7h7.8
				c0.9,0,1.7,0.1,2.5,0.4c0.8,0.3,1.4,0.6,1.9,1.1c0.5,0.5,1,1.1,1.3,1.7c0.3,0.7,0.5,1.5,0.5,2.3c0,1.1-0.3,2.1-0.9,2.9
				c-0.6,0.8-1.3,1.4-2.2,1.7c1,0.4,1.8,1,2.4,1.8c0.6,0.8,0.9,1.9,0.9,3.1C1202.8,698.1,1202.6,698.9,1202.3,699.6z M1199.9,686.1
				c-0.2-0.4-0.5-0.8-0.9-1.1c-0.4-0.3-0.8-0.5-1.3-0.7c-0.5-0.1-1-0.2-1.6-0.2h-5.4v7.2h5.4c0.6,0,1.1-0.1,1.6-0.2
				c0.5-0.1,0.9-0.4,1.3-0.7c0.4-0.3,0.6-0.7,0.9-1.1c0.2-0.5,0.3-1,0.3-1.6C1200.2,687.1,1200.1,686.5,1199.9,686.1z M1199.4,694.3
				c-0.7-0.7-1.8-1-3-1h-5.7v7.6h5.7c1.3,0,2.3-0.3,3-1c0.7-0.7,1.1-1.6,1.1-2.8C1200.6,695.9,1200.2,695,1199.4,694.3z"/>
			<path class="st4" d="M1220.1,702.9l-1.7-4.7h-9.1l-1.7,4.7h-2.4l7.6-20.7h1.9l7.6,20.7H1220.1z M1213.9,685.3l-3.9,11h7.8
				L1213.9,685.3z"/>
			<path class="st4" d="M1230.1,684.1v18.8h-2.2v-18.8h-6v-2h14.2v2H1230.1z"/>
			<path class="st4" d="M1252.1,702.9v-9.5h-9.8v9.5h-2.2v-20.7h2.2v9.3h9.8v-9.3h2.2v20.7H1252.1z"/>
		</g>
		<g>
			<path class="st4" d="M1215.4,728.8v-1.9l8.2-10.4c0.4-0.5,0.7-1,0.9-1.5c0.2-0.5,0.3-1,0.3-1.6c0-1.1-0.3-2-0.9-2.7
				c-0.6-0.7-1.5-1-2.7-1c-0.5,0-0.9,0.1-1.4,0.2c-0.4,0.1-0.8,0.4-1.2,0.7c-0.3,0.3-0.6,0.7-0.8,1.2c-0.2,0.5-0.3,1-0.3,1.7h-2.1
				c0-0.8,0.1-1.6,0.4-2.3c0.3-0.7,0.7-1.3,1.2-1.8c0.5-0.5,1.1-0.9,1.8-1.2s1.5-0.4,2.4-0.4c0.9,0,1.6,0.1,2.3,0.4
				c0.7,0.3,1.3,0.6,1.8,1.1c0.5,0.5,0.9,1.1,1.2,1.8c0.3,0.7,0.4,1.5,0.4,2.3c0,0.8-0.1,1.6-0.4,2.2c-0.3,0.6-0.7,1.3-1.3,2
				l-7.3,9.3h8.9v1.9H1215.4z"/>
		</g>
		<g>
			<path class="st4" d="M1020.8,789.1h-1.4l-3.1-11.3l-3.1,11.3h-1.4l-3.6-14.1h1.6l2.8,11.4l3.1-11.4h1.3l3.1,11.4l2.8-11.4h1.6
				L1020.8,789.1z"/>
			<path class="st4" d="M1035,789.1v-6.5h-6.7v6.5h-1.5v-14.1h1.5v6.3h6.7v-6.3h1.5v14.1H1035z"/>
		</g>
		<g>
			<path class="st4" d="M1006.8,678.3c-0.2,0.4-0.5,0.8-0.9,1.1c-0.4,0.3-0.8,0.5-1.3,0.7s-1.1,0.2-1.7,0.2c-0.9,0-1.7-0.1-2.4-0.4
				c-0.7-0.3-1.3-0.7-1.8-1.2l0.9-0.9c0.5,0.5,1,0.9,1.5,1c0.5,0.2,1.1,0.3,1.8,0.3c0.9,0,1.6-0.2,2.1-0.6c0.5-0.4,0.8-1,0.8-1.7
				c0-0.3,0-0.6-0.1-0.9c-0.1-0.3-0.2-0.5-0.4-0.7c-0.2-0.2-0.4-0.3-0.6-0.4s-0.5-0.1-1-0.2l-1.4-0.2c-1-0.2-1.7-0.5-2.3-0.9
				c-0.6-0.6-0.9-1.3-0.9-2.3c0-0.5,0.1-1,0.3-1.4s0.4-0.8,0.8-1.1c0.3-0.3,0.7-0.5,1.2-0.7c0.5-0.2,1-0.2,1.6-0.2
				c0.8,0,1.5,0.1,2,0.3c0.6,0.2,1.1,0.6,1.6,1l-0.8,0.8c-0.4-0.3-0.8-0.6-1.2-0.8s-1-0.3-1.6-0.3c-0.8,0-1.5,0.2-1.9,0.6
				c-0.4,0.4-0.7,1-0.7,1.7c0,0.6,0.2,1.1,0.5,1.4c0.2,0.2,0.4,0.3,0.7,0.4c0.3,0.1,0.6,0.2,0.9,0.3l1.3,0.2c0.3,0,0.5,0.1,0.8,0.1
				c0.2,0.1,0.4,0.1,0.6,0.2c0.2,0.1,0.3,0.1,0.5,0.2s0.3,0.2,0.4,0.3c0.7,0.6,1,1.4,1,2.4C1007.1,677.4,1007,677.9,1006.8,678.3z"
				/>
			<path class="st4" d="M1011.9,680.3c-0.4,0-0.7-0.1-1-0.2c-0.3-0.1-0.5-0.3-0.7-0.5c-0.2-0.2-0.3-0.4-0.4-0.7
				c-0.1-0.3-0.1-0.6-0.1-0.9v-5.2h-1.1v-0.9h1.1v-2.6h1.2v2.6h1.8v0.9h-1.8v5.2c0,0.4,0.1,0.7,0.3,0.9s0.5,0.3,0.9,0.3h0.7v1.1
				H1011.9z"/>
			<path class="st4" d="M1019.9,680.3v-0.8c-0.3,0.3-0.7,0.6-1.1,0.7s-0.8,0.2-1.4,0.2c-0.6,0-1.1-0.1-1.4-0.2
				c-0.4-0.1-0.7-0.3-1-0.6c-0.2-0.2-0.4-0.5-0.5-0.8c-0.1-0.3-0.2-0.6-0.2-1c0-0.7,0.2-1.3,0.7-1.8s1.2-0.7,2.2-0.7h2.5v-0.8
				c0-0.6-0.2-1.1-0.5-1.4c-0.3-0.3-0.9-0.5-1.7-0.5c-0.5,0-1,0.1-1.3,0.2c-0.3,0.1-0.6,0.4-0.8,0.7l-0.8-0.8c0.4-0.5,0.8-0.8,1.3-1
				c0.5-0.2,1-0.3,1.7-0.3c1.1,0,2,0.2,2.6,0.7c0.6,0.5,0.8,1.2,0.8,2.1v5.7H1019.9z M1019.9,676.4h-2.4c-1.3,0-1.9,0.5-1.9,1.5
				c0,0.5,0.2,0.9,0.5,1.1s0.8,0.4,1.5,0.4c0.4,0,0.7,0,1-0.1c0.3-0.1,0.6-0.2,0.9-0.5c0.3-0.3,0.4-0.8,0.4-1.5V676.4z"/>
			<path class="st4" d="M1029,680.1c-0.4,0.2-0.9,0.3-1.5,0.3c-0.5,0-1-0.1-1.5-0.3s-0.8-0.4-1.2-0.8s-0.6-0.8-0.8-1.4
				s-0.3-1.2-0.3-1.9s0.1-1.4,0.3-1.9s0.5-1,0.8-1.4c0.3-0.4,0.7-0.6,1.2-0.8s0.9-0.3,1.5-0.3c0.6,0,1.1,0.1,1.5,0.3
				c0.4,0.2,0.8,0.5,1.3,1l-0.8,0.8c-0.3-0.4-0.6-0.6-0.9-0.7c-0.3-0.1-0.6-0.2-1-0.2c-0.4,0-0.8,0.1-1.1,0.2
				c-0.3,0.2-0.6,0.4-0.8,0.7c-0.2,0.3-0.3,0.6-0.4,0.9s-0.1,0.8-0.1,1.3s0,1,0.1,1.3s0.2,0.7,0.4,0.9c0.2,0.3,0.5,0.6,0.8,0.7
				c0.3,0.2,0.7,0.2,1.1,0.2c0.4,0,0.7-0.1,1-0.2c0.3-0.1,0.6-0.4,0.9-0.7l0.8,0.8C1029.8,679.6,1029.4,679.9,1029,680.1z"/>
			<path class="st4" d="M1038.2,680.3l-2.7-4.3l-1.7,1.9v2.4h-1.2V668h1.2v8.2l3.8-4.4h1.5l-2.9,3.2l3.4,5.2H1038.2z"/>
			<path class="st4" d="M1042.3,676.4c0,0.9,0.2,1.6,0.6,2.1c0.4,0.5,1,0.8,1.9,0.8c0.5,0,0.9-0.1,1.2-0.2c0.3-0.2,0.7-0.4,1-0.7
				l0.8,0.7c-0.2,0.2-0.4,0.4-0.6,0.6s-0.4,0.3-0.7,0.4c-0.2,0.1-0.5,0.2-0.8,0.3c-0.3,0.1-0.6,0.1-1,0.1c-0.6,0-1.1-0.1-1.5-0.3
				c-0.5-0.2-0.8-0.4-1.2-0.8c-0.3-0.4-0.6-0.8-0.7-1.3c-0.2-0.5-0.3-1.2-0.3-1.9c0-1.4,0.3-2.4,0.9-3.2c0.6-0.8,1.5-1.1,2.5-1.1
				c1.1,0,2,0.4,2.6,1.1c0.6,0.7,0.9,1.7,0.9,3v0.6H1042.3z M1046.7,675c0-0.1,0-0.2,0-0.3c0-0.1,0-0.2-0.1-0.3
				c0-0.1-0.1-0.2-0.1-0.3c-0.2-0.4-0.4-0.7-0.8-0.9s-0.8-0.3-1.2-0.3s-0.8,0.1-1.2,0.3s-0.6,0.5-0.8,0.9c-0.1,0.2-0.2,0.4-0.2,0.6
				c0,0.2-0.1,0.4-0.1,0.8h4.5C1046.7,675.3,1046.7,675.1,1046.7,675z"/>
			<path class="st4" d="M1055.6,680.3v-1c-0.3,0.4-0.7,0.7-1.1,0.9c-0.4,0.1-0.8,0.2-1.3,0.2c-0.4,0-0.8-0.1-1.2-0.2
				c-0.4-0.1-0.6-0.3-0.9-0.5c-0.2-0.2-0.4-0.5-0.5-0.7c-0.1-0.3-0.2-0.6-0.3-0.9c-0.1-0.3-0.1-0.6-0.2-1c0-0.3,0-0.7,0-1
				c0-0.3,0-0.7,0-1c0-0.3,0.1-0.7,0.2-1c0.1-0.3,0.2-0.6,0.3-0.9c0.1-0.3,0.3-0.5,0.5-0.7c0.2-0.2,0.5-0.4,0.9-0.5s0.8-0.2,1.2-0.2
				c0.5,0,0.9,0.1,1.3,0.2c0.4,0.1,0.8,0.4,1.1,0.9l0-4.8h1.3v12.2H1055.6z M1055.6,674.8c0-0.4-0.1-0.7-0.3-1
				c-0.1-0.3-0.4-0.5-0.6-0.7s-0.6-0.3-1.1-0.3s-0.8,0.1-1.1,0.3c-0.3,0.2-0.5,0.4-0.6,0.7c-0.1,0.3-0.2,0.6-0.3,1
				c-0.1,0.4-0.1,0.8-0.1,1.2s0,0.8,0.1,1.2c0.1,0.4,0.2,0.7,0.3,1c0.1,0.3,0.4,0.5,0.6,0.7c0.3,0.2,0.6,0.3,1.1,0.3
				s0.8-0.1,1.1-0.3s0.5-0.4,0.6-0.7c0.1-0.3,0.2-0.6,0.3-1s0.1-0.8,0.1-1.2S1055.6,675.2,1055.6,674.8z"/>
		</g>
		<g>
			<path class="st4" d="M1023.1,696.6h-1.2l-2.7-9.8l-2.7,9.8h-1.2l-3.1-12.2h1.4l2.4,9.9l2.7-9.9h1.2l2.7,9.9l2.4-9.9h1.4
				L1023.1,696.6z"/>
			<path class="st4" d="M1027.7,697.9h-1.2l4.9-14.8h1.2L1027.7,697.9z"/>
			<path class="st4" d="M1042.9,691.7c0,0.5,0,0.9-0.1,1.4c-0.1,0.5-0.2,0.9-0.4,1.3c-0.2,0.4-0.4,0.8-0.7,1.1
				c-0.4,0.4-0.8,0.6-1.3,0.8c-0.5,0.2-1.1,0.3-1.8,0.3h-4.2v-12.2h4.2c0.6,0,1.2,0.1,1.8,0.3c0.5,0.2,1,0.5,1.3,0.8
				c0.3,0.3,0.6,0.7,0.7,1.1s0.3,0.8,0.4,1.2c0.1,0.4,0.1,0.8,0.1,1.3c0,0.4,0,0.9,0,1.3S1042.9,691.2,1042.9,691.7z M1041.6,689.2
				c0-0.4,0-0.7-0.1-1.1s-0.1-0.7-0.2-1c-0.1-0.3-0.3-0.6-0.5-0.8c-0.3-0.3-0.7-0.6-1.1-0.7s-0.8-0.2-1.3-0.2h-2.7v9.9h2.7
				c0.5,0,0.9-0.1,1.3-0.2s0.8-0.4,1.1-0.7c0.2-0.2,0.4-0.5,0.5-0.8c0.1-0.3,0.2-0.7,0.2-1c0-0.4,0.1-0.8,0.1-1.2c0-0.4,0-0.8,0-1.2
				S1041.6,689.6,1041.6,689.2z"/>
		</g>
		<g>
			<path class="st4" d="M1310.8,809V795h1.5v12.7h7.2v1.3H1310.8z"/>
			<path class="st4" d="M1321.8,796.6V795h1.6v1.6H1321.8z M1321.9,809v-9.7h1.4v9.7H1321.9z"/>
			<path class="st4" d="M1333.1,809v-6c0-0.9-0.2-1.5-0.6-1.9c-0.4-0.4-1-0.6-1.7-0.6c-0.7,0-1.3,0.2-1.8,0.7
				c-0.4,0.4-0.7,1.1-0.7,1.9v6h-1.4v-9.7h1.4v1.1c0.3-0.4,0.7-0.7,1.2-0.9c0.5-0.2,1-0.3,1.5-0.3c1.1,0,1.9,0.3,2.5,0.9
				c0.7,0.7,1,1.6,1,2.7v6.2H1333.1z"/>
			<path class="st4" d="M1338.8,804.5c0,1.1,0.2,1.9,0.7,2.5c0.5,0.6,1.2,0.9,2.1,0.9c0.6,0,1-0.1,1.4-0.3s0.8-0.5,1.1-0.8l1,0.8
				c-0.3,0.3-0.5,0.5-0.7,0.7c-0.2,0.2-0.5,0.3-0.8,0.5s-0.6,0.2-0.9,0.3c-0.3,0.1-0.7,0.1-1.1,0.1c-0.6,0-1.2-0.1-1.7-0.3
				s-1-0.5-1.3-0.9c-0.4-0.4-0.7-0.9-0.9-1.5c-0.2-0.6-0.3-1.4-0.3-2.2c0-1.6,0.4-2.8,1.1-3.7c0.7-0.9,1.7-1.3,2.9-1.3
				c1.3,0,2.2,0.4,2.9,1.3c0.7,0.8,1,2,1,3.4v0.7H1338.8z M1343.9,803c0-0.1,0-0.3,0-0.4s0-0.2-0.1-0.3c0-0.1-0.1-0.2-0.1-0.4
				c-0.2-0.4-0.5-0.8-0.9-1.1c-0.4-0.3-0.9-0.4-1.4-0.4c-0.5,0-1,0.1-1.4,0.4c-0.4,0.3-0.7,0.6-0.9,1.1c-0.1,0.3-0.2,0.5-0.2,0.7
				c0,0.2-0.1,0.5-0.1,0.9h5.1C1344,803.3,1343.9,803.1,1343.9,803z"/>
			<path class="st4" d="M1354.6,809v-6c0-0.9-0.2-1.5-0.6-1.9c-0.4-0.4-1-0.6-1.7-0.6c-0.7,0-1.3,0.2-1.8,0.7
				c-0.4,0.4-0.7,1.1-0.7,1.9v6h-1.4v-9.7h1.4v1.1c0.3-0.4,0.7-0.7,1.2-0.9c0.5-0.2,1-0.3,1.5-0.3c1.1,0,1.9,0.3,2.5,0.9
				c0.7,0.7,1,1.6,1,2.7v6.2H1354.6z"/>
		</g>
		<g>
			<path class="st4" d="M611.9,551.3c-0.2,0.6-0.4,1.2-0.8,1.9l-4,8h-1.7l3.6-7.3c-0.5,0.2-1.1,0.3-1.7,0.3c-0.6,0-1.2-0.1-1.7-0.3
				c-0.5-0.2-1-0.5-1.3-1s-0.6-0.9-0.8-1.5c-0.2-0.6-0.3-1.2-0.3-1.8c0-0.7,0.1-1.3,0.3-1.9c0.2-0.6,0.5-1.1,0.9-1.5
				c0.4-0.4,0.9-0.8,1.4-1c0.6-0.2,1.2-0.4,1.9-0.4c0.7,0,1.3,0.1,1.9,0.3c0.6,0.2,1,0.5,1.4,0.9c0.4,0.4,0.7,0.9,0.9,1.5
				c0.2,0.6,0.3,1.2,0.3,1.9C612.1,550.1,612,550.7,611.9,551.3z M609.7,547.2c-0.5-0.6-1.2-0.9-2.1-0.9c-0.9,0-1.6,0.3-2.1,0.9
				c-0.5,0.6-0.8,1.4-0.8,2.4c0,0.5,0.1,0.9,0.2,1.3c0.1,0.4,0.3,0.7,0.5,1c0.2,0.3,0.5,0.5,0.9,0.7s0.8,0.3,1.2,0.3
				c0.9,0,1.6-0.3,2.1-0.9c0.5-0.6,0.8-1.4,0.8-2.4S610.2,547.8,609.7,547.2z"/>
			<path class="st4" d="M615.6,548.7V545h2v1.9L615.6,548.7z"/>
			<path class="st4" d="M633.4,561.2l-2.7-4.4l-2.7,4.4h-2l3.8-5.7l-3.6-5.5h2l2.6,4.1l2.5-4.1h2l-3.6,5.5l3.8,5.7H633.4z"/>
			<path class="st4" d="M652.2,558.6c-0.2,0.6-0.6,1-1,1.5s-0.9,0.7-1.5,0.9s-1.2,0.3-1.9,0.3c-0.7,0-1.3-0.1-1.9-0.3
				c-0.6-0.2-1.1-0.5-1.5-0.9s-0.8-0.9-1-1.5c-0.2-0.6-0.4-1.2-0.4-1.9c0-1,0.2-1.8,0.7-2.4c0.5-0.6,1-1.2,1.7-1.6
				c-0.6-0.4-1.2-0.8-1.5-1.4c-0.4-0.6-0.6-1.3-0.6-2.2c0-0.6,0.1-1.2,0.3-1.8c0.2-0.5,0.5-1,0.9-1.4c0.4-0.4,0.9-0.7,1.4-0.9
				c0.5-0.2,1.1-0.3,1.8-0.3s1.2,0.1,1.8,0.3s1,0.5,1.4,0.9s0.7,0.8,0.9,1.4c0.2,0.5,0.3,1.1,0.3,1.8c0,0.8-0.2,1.6-0.6,2.2
				s-0.9,1.1-1.5,1.4c0.7,0.4,1.3,0.9,1.7,1.6c0.5,0.6,0.7,1.4,0.7,2.4C652.6,557.4,652.5,558.1,652.2,558.6z M650.7,555.5
				c-0.2-0.4-0.4-0.7-0.7-1c-0.3-0.3-0.6-0.5-1-0.7c-0.4-0.2-0.8-0.2-1.2-0.2c-0.4,0-0.9,0.1-1.2,0.2c-0.4,0.2-0.7,0.4-1,0.7
				c-0.3,0.3-0.5,0.6-0.7,1s-0.2,0.8-0.2,1.3s0.1,0.9,0.2,1.3s0.4,0.7,0.7,1c0.3,0.3,0.6,0.5,1,0.7c0.4,0.2,0.8,0.2,1.2,0.2
				c0.4,0,0.9-0.1,1.2-0.2c0.4-0.2,0.7-0.4,1-0.7c0.3-0.3,0.5-0.6,0.7-1c0.2-0.4,0.2-0.8,0.2-1.3S650.9,555.9,650.7,555.5z
				 M649.8,547.1c-0.5-0.5-1.2-0.8-2-0.8c-0.8,0-1.5,0.3-2,0.8c-0.5,0.5-0.8,1.2-0.8,2.1c0,0.9,0.3,1.6,0.8,2.1
				c0.5,0.5,1.2,0.8,2,0.8c0.8,0,1.5-0.3,2-0.8c0.5-0.5,0.8-1.2,0.8-2.1C650.6,548.4,650.4,547.7,649.8,547.1z"/>
			<path class="st4" d="M655.8,548.7V545h2v1.9L655.8,548.7z"/>
		</g>
		<g>
			<path class="st4" d="M875.4,412.2V392h2.2v18.3h10.3v1.9H875.4z"/>
			<path class="st4" d="M891.7,412.2V392h2.2v20.2H891.7z"/>
			<path class="st4" d="M905.4,412.2h-1.8L897,392h2.3l5.2,16.3l5.2-16.3h2.3L905.4,412.2z"/>
			<path class="st4" d="M915.1,412.2V392h2.2v20.2H915.1z"/>
			<path class="st4" d="M936,412.2L925.3,396v16.2h-2.2V392h2l10.7,16.1V392h2.2v20.2H936z"/>
			<path class="st4" d="M956.9,407.8c-0.3,0.8-0.7,1.6-1.3,2.2c-0.7,0.8-1.5,1.4-2.5,1.7c-0.9,0.4-1.9,0.6-2.9,0.6
				c-1,0-1.9-0.2-2.8-0.5c-0.9-0.4-1.7-0.9-2.3-1.6c-0.5-0.5-0.8-1-1.1-1.5c-0.3-0.5-0.4-1.1-0.6-1.7c-0.1-0.6-0.2-1.4-0.2-2.2
				c0-0.8,0-1.7,0-2.8s0-2,0-2.8c0-0.8,0.1-1.5,0.2-2.2c0.1-0.6,0.3-1.2,0.6-1.7c0.3-0.5,0.6-1,1.1-1.5c1.4-1.4,3.1-2.1,5.2-2.1
				c1,0,1.8,0.1,2.7,0.4c0.8,0.3,1.5,0.7,2.1,1.2c0.6,0.5,1.1,1.2,1.5,1.9c0.4,0.7,0.7,1.5,0.8,2.4h-2.2c-0.3-1.3-0.9-2.3-1.7-3
				c-0.9-0.7-1.9-1.1-3.2-1.1c-0.7,0-1.3,0.1-1.9,0.4c-0.6,0.3-1.1,0.6-1.6,1.1c-0.3,0.3-0.6,0.7-0.8,1c-0.2,0.4-0.3,0.8-0.4,1.3
				c-0.1,0.5-0.2,1.1-0.2,1.9c0,0.7,0,1.6,0,2.7s0,2,0,2.7c0,0.7,0.1,1.4,0.2,1.9s0.2,1,0.4,1.3c0.2,0.4,0.4,0.7,0.8,1
				c0.4,0.5,1,0.8,1.6,1c0.6,0.2,1.3,0.4,1.9,0.4c0.7,0,1.4-0.1,2.1-0.4c0.7-0.3,1.2-0.7,1.7-1.3c0.4-0.5,0.7-1,0.9-1.6
				c0.2-0.6,0.3-1.3,0.3-2.1v-1.5h-5v-1.9h7.1v3.2C957.3,406,957.2,407,956.9,407.8z"/>
		</g>
		<g>
			<path class="st4" d="M605.1,303.8c-0.3,0.8-0.8,1.4-1.3,1.9c-0.6,0.5-1.3,0.9-2,1.2c-0.8,0.3-1.7,0.4-2.6,0.4h-5.6v8.6h-2.2v-21
				h7.8c1,0,1.8,0.1,2.6,0.4c0.8,0.3,1.5,0.7,2,1.2c0.6,0.5,1,1.2,1.3,1.9s0.5,1.6,0.5,2.5S605.4,303,605.1,303.8z M602.1,298.1
				c-0.8-0.7-1.9-1-3.2-1h-5.4v8.3h5.4c1.3,0,2.4-0.3,3.2-1c0.8-0.7,1.2-1.7,1.2-3.1C603.4,299.8,602.9,298.8,602.1,298.1z"/>
			<path class="st4" d="M620.6,316l-1.7-4.7h-9.2l-1.7,4.7h-2.4l7.7-21h1.9l7.7,21H620.6z M614.4,298.3l-3.9,11.1h7.8L614.4,298.3z"
				/>
			<path class="st4" d="M630.8,297.1v19h-2.2v-19h-6.1v-2h14.4v2H630.8z"/>
			<path class="st4" d="M640.7,316v-21h2.2v21H640.7z"/>
			<path class="st4" d="M662.9,308.5c0,0.8-0.1,1.6-0.2,2.2c-0.1,0.7-0.3,1.3-0.6,1.8c-0.3,0.5-0.6,1-1.1,1.5
				c-0.7,0.7-1.5,1.2-2.4,1.6c-0.9,0.4-1.9,0.6-2.9,0.6c-2.1,0-3.9-0.7-5.4-2.2c-0.5-0.5-0.9-1-1.1-1.5c-0.3-0.5-0.5-1.1-0.6-1.8
				c-0.1-0.7-0.2-1.4-0.2-2.2c0-0.8,0-1.8,0-2.9c0-1.1,0-2.1,0-2.9c0-0.8,0.1-1.6,0.2-2.2c0.1-0.7,0.3-1.3,0.6-1.8
				c0.3-0.5,0.6-1,1.1-1.5c1.5-1.5,3.2-2.2,5.4-2.2s3.9,0.7,5.4,2.2c0.5,0.5,0.9,1,1.1,1.5c0.3,0.5,0.5,1.1,0.6,1.8
				c0.1,0.7,0.2,1.4,0.2,2.2c0,0.8,0,1.8,0,2.9C662.9,306.7,662.9,307.6,662.9,308.5z M660.6,302.8c0-0.8-0.1-1.4-0.2-1.9
				c-0.1-0.5-0.2-1-0.4-1.4c-0.2-0.4-0.5-0.7-0.8-1.1c-0.5-0.5-1-0.8-1.6-1.1c-0.6-0.3-1.3-0.4-2-0.4c-0.7,0-1.3,0.1-2,0.4
				c-0.6,0.3-1.2,0.6-1.6,1.1c-0.3,0.3-0.6,0.7-0.8,1.1c-0.2,0.4-0.3,0.8-0.4,1.4c-0.1,0.5-0.2,1.2-0.2,1.9c0,0.8,0,1.7,0,2.8
				c0,1.1,0,2,0,2.8c0,0.8,0.1,1.4,0.2,1.9c0.1,0.5,0.2,1,0.4,1.4c0.2,0.4,0.5,0.7,0.8,1.1c0.5,0.5,1,0.8,1.6,1.1
				c0.6,0.3,1.3,0.4,2,0.4c0.7,0,1.3-0.1,2-0.4c0.6-0.3,1.2-0.6,1.6-1.1c0.3-0.3,0.6-0.7,0.8-1.1c0.2-0.4,0.3-0.8,0.4-1.4
				c0.1-0.5,0.2-1.2,0.2-1.9c0-0.8,0-1.7,0-2.8C660.7,304.4,660.6,303.5,660.6,302.8z"/>
		</g>
		<g>
			<path class="st4" d="M322.4,484.9v-15.4l-5.6,12.2H315l-5.6-12.2v15.4h-2.2v-20.3h2.2L316,479l6.4-14.4h2.2v20.3H322.4z"/>
			<path class="st4" d="M342.3,484.9l-1.6-4.6h-8.9l-1.6,4.6h-2.3l7.5-20.3h1.8l7.4,20.3H342.3z M336.3,467.7l-3.8,10.7h7.6
				L336.3,467.7z"/>
			<path class="st4" d="M359.6,481.7c-0.3,0.7-0.8,1.3-1.4,1.8c-0.6,0.5-1.4,0.9-2.2,1.1s-1.8,0.4-2.9,0.4c-1.5,0-2.8-0.2-3.9-0.6
				s-2.1-1.1-3.1-2.1l1.5-1.5c0.8,0.8,1.7,1.4,2.5,1.7c0.9,0.3,1.9,0.5,3,0.5c1.5,0,2.7-0.3,3.5-1s1.3-1.6,1.3-2.8
				c0-0.5-0.1-1-0.2-1.5c-0.2-0.4-0.4-0.8-0.7-1.1c-0.3-0.3-0.7-0.5-1-0.6c-0.4-0.1-0.9-0.2-1.6-0.4l-2.4-0.4
				c-1.6-0.3-2.9-0.8-3.7-1.5c-1-0.9-1.5-2.2-1.5-3.8c0-0.9,0.2-1.6,0.5-2.4c0.3-0.7,0.7-1.3,1.3-1.8c0.6-0.5,1.2-0.9,2-1.2
				c0.8-0.3,1.7-0.4,2.7-0.4c1.3,0,2.4,0.2,3.3,0.5c0.9,0.4,1.8,0.9,2.7,1.7l-1.4,1.4c-0.6-0.6-1.3-1-2-1.3
				c-0.7-0.3-1.6-0.4-2.7-0.4c-1.4,0-2.4,0.3-3.2,1c-0.7,0.7-1.1,1.6-1.1,2.7c0,1,0.3,1.8,0.9,2.3c0.3,0.3,0.7,0.5,1.2,0.7
				c0.5,0.2,1,0.3,1.5,0.4l2.2,0.3c0.5,0.1,0.9,0.2,1.3,0.2c0.4,0.1,0.7,0.2,1,0.3c0.3,0.1,0.5,0.2,0.8,0.4s0.5,0.3,0.7,0.5
				c1.1,1,1.7,2.3,1.7,4C360.1,480.2,360,481,359.6,481.7z"/>
			<path class="st4" d="M370.6,466.6v18.4h-2.2v-18.4h-5.9v-1.9h13.9v1.9H370.6z"/>
			<path class="st4" d="M380.3,484.9v-20.3h12.6v1.9h-10.4v7.2h8.9v1.9h-8.9v7.3h10.4v1.9H380.3z"/>
			<path class="st4" d="M409.1,484.9l-4.6-9h-4.9v9h-2.2v-20.3h7.8c0.9,0,1.7,0.1,2.4,0.4c0.7,0.3,1.4,0.6,1.9,1.1s0.9,1.1,1.2,1.8
				c0.3,0.7,0.4,1.5,0.4,2.4c0,1.5-0.4,2.7-1.2,3.6c-0.8,0.9-1.9,1.5-3.2,1.8l4.8,9.2H409.1z M407.9,467.5c-0.8-0.6-1.7-0.9-2.9-0.9
				h-5.4v7.4h5.4c1.2,0,2.2-0.3,2.9-0.9c0.8-0.6,1.1-1.5,1.1-2.8S408.7,468.1,407.9,467.5z"/>
		</g>
		<g>
			<path class="st4" d="M306.8,506.7c-0.3,0.7-0.7,1.3-1.2,1.8c-0.5,0.5-1.2,0.8-1.9,1.1c-0.7,0.2-1.6,0.4-2.5,0.4h-7.9v-20.3h7.6
				c0.9,0,1.7,0.1,2.4,0.4c0.7,0.2,1.4,0.6,1.9,1.1c0.5,0.5,0.9,1,1.2,1.7c0.3,0.7,0.4,1.4,0.4,2.3c0,1.1-0.3,2-0.9,2.8
				c-0.6,0.8-1.3,1.3-2.1,1.7c1,0.4,1.8,1,2.4,1.8c0.6,0.8,0.9,1.8,0.9,3.1C307.3,505.2,307.1,506,306.8,506.7z M304.5,493.5
				c-0.2-0.4-0.5-0.8-0.8-1.1c-0.4-0.3-0.8-0.5-1.3-0.6s-1-0.2-1.6-0.2h-5.3v7h5.3c0.6,0,1.1-0.1,1.6-0.2s0.9-0.4,1.3-0.6
				c0.4-0.3,0.6-0.7,0.8-1.1c0.2-0.4,0.3-1,0.3-1.6S304.7,493.9,304.5,493.5z M304,501.5c-0.7-0.7-1.7-1-3-1h-5.5v7.4h5.5
				c1.3,0,2.2-0.3,3-1c0.7-0.7,1.1-1.6,1.1-2.7S304.8,502.2,304,501.5z"/>
			<path class="st4" d="M312.4,509.9v-20.3H325v1.9h-10.4v7.2h8.9v1.9h-8.9v7.3H325v1.9H312.4z"/>
			<path class="st4" d="M343.6,501.8c0,0.8-0.1,1.5-0.2,2.3c-0.1,0.8-0.3,1.5-0.6,2.2c-0.3,0.7-0.7,1.3-1.2,1.8
				c-0.6,0.6-1.4,1.1-2.2,1.4c-0.9,0.3-1.8,0.5-2.9,0.5h-7v-20.3h7c1.1,0,2,0.2,2.9,0.5s1.6,0.8,2.2,1.4c0.5,0.5,0.9,1.1,1.2,1.8
				c0.3,0.6,0.5,1.3,0.6,2c0.1,0.7,0.2,1.4,0.2,2.1c0,0.7,0,1.5,0,2.2C343.6,500.3,343.6,501,343.6,501.8z M341.4,497.7
				c0-0.6-0.1-1.2-0.1-1.8c-0.1-0.6-0.2-1.1-0.4-1.6c-0.2-0.5-0.5-0.9-0.8-1.3c-0.5-0.6-1.1-0.9-1.8-1.2c-0.7-0.2-1.4-0.3-2.2-0.3
				h-4.4V508h4.4c0.8,0,1.5-0.1,2.2-0.3c0.7-0.2,1.3-0.6,1.8-1.2c0.3-0.4,0.6-0.8,0.8-1.4c0.2-0.5,0.3-1.1,0.4-1.7
				c0.1-0.6,0.1-1.3,0.1-1.9c0-0.7,0-1.3,0-1.9S341.4,498.3,341.4,497.7z"/>
			<path class="st4" d="M360.4,509.9l-4.6-9h-4.9v9h-2.2v-20.3h7.8c0.9,0,1.7,0.1,2.4,0.4c0.7,0.3,1.4,0.6,1.9,1.1s0.9,1.1,1.2,1.8
				c0.3,0.7,0.4,1.5,0.4,2.4c0,1.5-0.4,2.7-1.2,3.6c-0.8,0.9-1.9,1.5-3.2,1.8l4.8,9.2H360.4z M359.2,492.5c-0.8-0.6-1.7-0.9-2.9-0.9
				h-5.4v7.4h5.4c1.2,0,2.2-0.3,2.9-0.9c0.8-0.6,1.1-1.5,1.1-2.8S360,493.1,359.2,492.5z"/>
			<path class="st4" d="M380.8,502.6c0,0.8-0.1,1.5-0.2,2.2c-0.1,0.6-0.3,1.2-0.6,1.7c-0.3,0.5-0.6,1-1.1,1.5
				c-0.7,0.7-1.5,1.2-2.3,1.6c-0.9,0.4-1.8,0.5-2.9,0.5c-2.1,0-3.8-0.7-5.2-2.1c-0.5-0.5-0.8-1-1.1-1.5s-0.4-1.1-0.6-1.7
				c-0.1-0.6-0.2-1.4-0.2-2.2c0-0.8,0-1.8,0-2.8s0-2,0-2.8c0-0.8,0.1-1.5,0.2-2.2c0.1-0.6,0.3-1.2,0.6-1.7s0.6-1,1.1-1.5
				c1.4-1.4,3.1-2.1,5.2-2.1s3.8,0.7,5.2,2.1c0.5,0.5,0.8,1,1.1,1.5c0.3,0.5,0.4,1.1,0.6,1.7c0.1,0.6,0.2,1.4,0.2,2.2
				c0,0.8,0,1.8,0,2.8S380.8,501.8,380.8,502.6z M378.6,497.1c0-0.7-0.1-1.4-0.2-1.9c-0.1-0.5-0.2-1-0.4-1.3c-0.2-0.4-0.4-0.7-0.8-1
				c-0.4-0.5-1-0.8-1.6-1.1c-0.6-0.3-1.3-0.4-1.9-0.4c-0.7,0-1.3,0.1-1.9,0.4c-0.6,0.3-1.1,0.6-1.6,1.1c-0.3,0.3-0.6,0.7-0.8,1
				s-0.3,0.8-0.4,1.3c-0.1,0.5-0.2,1.1-0.2,1.9c0,0.7,0,1.6,0,2.7c0,1.1,0,2,0,2.7c0,0.7,0.1,1.4,0.2,1.9s0.2,1,0.4,1.3
				s0.4,0.7,0.8,1c0.4,0.5,1,0.8,1.6,1.1c0.6,0.3,1.3,0.4,1.9,0.4c0.7,0,1.3-0.1,1.9-0.4c0.6-0.3,1.1-0.6,1.6-1.1
				c0.3-0.3,0.6-0.7,0.8-1c0.2-0.4,0.3-0.8,0.4-1.3c0.1-0.5,0.2-1.1,0.2-1.9c0-0.7,0-1.6,0-2.7C378.7,498.7,378.6,497.8,378.6,497.1
				z"/>
			<path class="st4" d="M399.3,502.6c0,0.8-0.1,1.5-0.2,2.2c-0.1,0.6-0.3,1.2-0.6,1.7c-0.3,0.5-0.6,1-1.1,1.5
				c-0.7,0.7-1.5,1.2-2.3,1.6c-0.9,0.4-1.8,0.5-2.9,0.5c-2.1,0-3.8-0.7-5.2-2.1c-0.5-0.5-0.8-1-1.1-1.5s-0.4-1.1-0.6-1.7
				c-0.1-0.6-0.2-1.4-0.2-2.2c0-0.8,0-1.8,0-2.8s0-2,0-2.8c0-0.8,0.1-1.5,0.2-2.2c0.1-0.6,0.3-1.2,0.6-1.7s0.6-1,1.1-1.5
				c1.4-1.4,3.1-2.1,5.2-2.1s3.8,0.7,5.2,2.1c0.5,0.5,0.8,1,1.1,1.5c0.3,0.5,0.4,1.1,0.6,1.7c0.1,0.6,0.2,1.4,0.2,2.2
				c0,0.8,0,1.8,0,2.8S399.4,501.8,399.3,502.6z M397.2,497.1c0-0.7-0.1-1.4-0.2-1.9c-0.1-0.5-0.2-1-0.4-1.3c-0.2-0.4-0.4-0.7-0.8-1
				c-0.4-0.5-1-0.8-1.6-1.1c-0.6-0.3-1.3-0.4-1.9-0.4c-0.7,0-1.3,0.1-1.9,0.4c-0.6,0.3-1.1,0.6-1.6,1.1c-0.3,0.3-0.6,0.7-0.8,1
				s-0.3,0.8-0.4,1.3c-0.1,0.5-0.2,1.1-0.2,1.9c0,0.7,0,1.6,0,2.7c0,1.1,0,2,0,2.7c0,0.7,0.1,1.4,0.2,1.9s0.2,1,0.4,1.3
				s0.4,0.7,0.8,1c0.4,0.5,1,0.8,1.6,1.1c0.6,0.3,1.3,0.4,1.9,0.4c0.7,0,1.3-0.1,1.9-0.4c0.6-0.3,1.1-0.6,1.6-1.1
				c0.3-0.3,0.6-0.7,0.8-1c0.2-0.4,0.3-0.8,0.4-1.3c0.1-0.5,0.2-1.1,0.2-1.9c0-0.7,0-1.6,0-2.7C397.2,498.7,397.2,497.8,397.2,497.1
				z"/>
			<path class="st4" d="M419.7,509.9v-15.4l-5.6,12.2h-1.9l-5.6-12.2v15.4h-2.2v-20.3h2.2l6.6,14.4l6.4-14.4h2.2v20.3H419.7z"/>
		</g>
		<g>
			<g>
				<path class="st4" d="M322.8,530.7v-14.4l-3,2.7v-1.9l3-2.6h1.6v16.2H322.8z"/>
				<path class="st4" d="M330.4,530.7v-1.5l6.4-8.1c0.3-0.4,0.5-0.8,0.7-1.2s0.2-0.8,0.2-1.2c0-0.9-0.2-1.6-0.7-2.1
					c-0.5-0.5-1.2-0.8-2.1-0.8c-0.4,0-0.7,0.1-1.1,0.2s-0.6,0.3-0.9,0.5s-0.5,0.6-0.6,0.9c-0.2,0.4-0.2,0.8-0.2,1.3h-1.6
					c0-0.6,0.1-1.2,0.3-1.8c0.2-0.5,0.5-1,0.9-1.4c0.4-0.4,0.9-0.7,1.4-0.9c0.5-0.2,1.2-0.3,1.8-0.3c0.7,0,1.3,0.1,1.8,0.3
					s1,0.5,1.4,0.9c0.4,0.4,0.7,0.8,0.9,1.4c0.2,0.5,0.3,1.1,0.3,1.8c0,0.7-0.1,1.2-0.3,1.7s-0.5,1-1,1.6l-5.7,7.2h7v1.5H330.4z"/>
				<path class="st4" d="M342.7,518.2v-3.7h2v1.9L342.7,518.2z"/>
				<path class="st4" d="M360.5,530.7l-2.7-4.4l-2.7,4.4h-2l3.8-5.7l-3.6-5.5h2l2.6,4.1l2.5-4.1h2l-3.6,5.5l3.8,5.7H360.5z"/>
				<path class="st4" d="M374.8,530.7v-14.4l-3,2.7v-1.9l3-2.6h1.6v16.2H374.8z"/>
				<path class="st4" d="M389.9,528.1v2.6h-1.6v-2.6h-6.5v-1.5l5.9-12.2h1.8l-5.9,12.2l4.7,0v-4.6h1.6v4.6h2v1.5H389.9z"/>
				<path class="st4" d="M394.7,518.2v-3.7h2v1.9L394.7,518.2z"/>
			</g>
		</g>
		<g>
			<path class="st4" d="M1171.2,268.7c-0.3,0.7-0.7,1.3-1.2,1.8c-0.5,0.5-1.2,0.8-1.9,1.1c-0.7,0.2-1.6,0.4-2.5,0.4h-7.9v-20.3h7.6
				c0.9,0,1.7,0.1,2.4,0.4c0.7,0.2,1.4,0.6,1.9,1.1c0.5,0.5,0.9,1,1.2,1.7c0.3,0.7,0.4,1.4,0.4,2.3c0,1.1-0.3,2-0.9,2.8
				c-0.6,0.8-1.3,1.3-2.1,1.7c1,0.4,1.8,1,2.4,1.8s0.9,1.8,0.9,3.1C1171.6,267.2,1171.5,268,1171.2,268.7z M1168.8,255.4
				c-0.2-0.4-0.5-0.8-0.8-1.1s-0.8-0.5-1.3-0.6c-0.5-0.1-1-0.2-1.6-0.2h-5.3v7h5.3c0.6,0,1.1-0.1,1.6-0.2c0.5-0.1,0.9-0.4,1.3-0.6
				s0.6-0.7,0.8-1.1c0.2-0.4,0.3-1,0.3-1.6S1169,255.9,1168.8,255.4z M1168.4,263.5c-0.7-0.7-1.7-1-3-1h-5.5v7.4h5.5
				c1.3,0,2.2-0.3,3-1c0.7-0.7,1.1-1.6,1.1-2.7S1169.1,264.1,1168.4,263.5z"/>
			<path class="st4" d="M1176.7,271.9v-20.3h12.6v1.9h-10.4v7.2h8.9v1.9h-8.9v7.3h10.4v1.9H1176.7z"/>
			<path class="st4" d="M1207.9,263.7c0,0.8-0.1,1.5-0.2,2.3c-0.1,0.8-0.3,1.5-0.6,2.2c-0.3,0.7-0.7,1.3-1.2,1.8
				c-0.6,0.6-1.4,1.1-2.2,1.4c-0.9,0.3-1.8,0.5-2.9,0.5h-7v-20.3h7c1.1,0,2,0.2,2.9,0.5c0.9,0.3,1.6,0.8,2.2,1.4
				c0.5,0.5,0.9,1.1,1.2,1.8c0.3,0.6,0.5,1.3,0.6,2c0.1,0.7,0.2,1.4,0.2,2.1c0,0.7,0,1.5,0,2.2
				C1207.9,262.2,1207.9,262.9,1207.9,263.7z M1205.7,259.6c0-0.6-0.1-1.2-0.1-1.8s-0.2-1.1-0.4-1.6c-0.2-0.5-0.5-0.9-0.8-1.3
				c-0.5-0.6-1.1-0.9-1.8-1.2c-0.7-0.2-1.4-0.3-2.2-0.3h-4.4v16.4h4.4c0.8,0,1.5-0.1,2.2-0.3c0.7-0.2,1.3-0.6,1.8-1.2
				c0.3-0.4,0.6-0.8,0.8-1.4c0.2-0.5,0.3-1.1,0.4-1.7c0.1-0.6,0.1-1.3,0.1-1.9c0-0.7,0-1.3,0-1.9S1205.8,260.2,1205.7,259.6z"/>
			<path class="st4" d="M1224.7,271.9l-4.6-9h-4.9v9h-2.2v-20.3h7.8c0.9,0,1.7,0.1,2.4,0.4c0.7,0.3,1.4,0.6,1.9,1.1s0.9,1.1,1.2,1.8
				c0.3,0.7,0.4,1.5,0.4,2.4c0,1.5-0.4,2.7-1.2,3.6c-0.8,0.9-1.9,1.5-3.2,1.8l4.8,9.2H1224.7z M1223.5,254.4
				c-0.8-0.6-1.7-0.9-2.9-0.9h-5.4v7.4h5.4c1.2,0,2.2-0.3,2.9-0.9c0.8-0.6,1.1-1.5,1.1-2.8C1224.7,256,1224.3,255,1223.5,254.4z"/>
			<path class="st4" d="M1245.1,264.6c0,0.8-0.1,1.5-0.2,2.2c-0.1,0.6-0.3,1.2-0.6,1.7c-0.3,0.5-0.6,1-1.1,1.5
				c-0.7,0.7-1.5,1.2-2.3,1.6c-0.9,0.4-1.8,0.5-2.9,0.5c-2.1,0-3.8-0.7-5.2-2.1c-0.5-0.5-0.8-1-1.1-1.5s-0.4-1.1-0.6-1.7
				c-0.1-0.6-0.2-1.4-0.2-2.2c0-0.8,0-1.8,0-2.8s0-2,0-2.8c0-0.8,0.1-1.5,0.2-2.2c0.1-0.6,0.3-1.2,0.6-1.7s0.6-1,1.1-1.5
				c1.4-1.4,3.1-2.1,5.2-2.1c2.1,0,3.8,0.7,5.2,2.1c0.5,0.5,0.8,1,1.1,1.5c0.3,0.5,0.4,1.1,0.6,1.7c0.1,0.6,0.2,1.4,0.2,2.2
				c0,0.8,0,1.8,0,2.8S1245.2,263.7,1245.1,264.6z M1243,259c0-0.7-0.1-1.4-0.2-1.9c-0.1-0.5-0.2-1-0.4-1.3c-0.2-0.4-0.4-0.7-0.8-1
				c-0.4-0.5-1-0.8-1.6-1.1c-0.6-0.3-1.3-0.4-1.9-0.4c-0.7,0-1.3,0.1-1.9,0.4c-0.6,0.3-1.1,0.6-1.6,1.1c-0.3,0.3-0.6,0.7-0.8,1
				c-0.2,0.4-0.3,0.8-0.4,1.3c-0.1,0.5-0.2,1.1-0.2,1.9c0,0.7,0,1.6,0,2.7c0,1.1,0,2,0,2.7c0,0.7,0.1,1.4,0.2,1.9
				c0.1,0.5,0.2,1,0.4,1.3c0.2,0.4,0.4,0.7,0.8,1c0.4,0.5,1,0.8,1.6,1.1c0.6,0.3,1.3,0.4,1.9,0.4c0.7,0,1.3-0.1,1.9-0.4
				c0.6-0.3,1.1-0.6,1.6-1.1c0.3-0.3,0.6-0.7,0.8-1c0.2-0.4,0.3-0.8,0.4-1.3c0.1-0.5,0.2-1.1,0.2-1.9c0-0.7,0-1.6,0-2.7
				C1243,260.6,1243,259.7,1243,259z"/>
			<path class="st4" d="M1263.7,264.6c0,0.8-0.1,1.5-0.2,2.2c-0.1,0.6-0.3,1.2-0.6,1.7s-0.6,1-1.1,1.5c-0.7,0.7-1.5,1.2-2.3,1.6
				c-0.9,0.4-1.8,0.5-2.9,0.5c-2.1,0-3.8-0.7-5.2-2.1c-0.5-0.5-0.8-1-1.1-1.5s-0.4-1.1-0.6-1.7c-0.1-0.6-0.2-1.4-0.2-2.2
				c0-0.8,0-1.8,0-2.8s0-2,0-2.8c0-0.8,0.1-1.5,0.2-2.2c0.1-0.6,0.3-1.2,0.6-1.7s0.6-1,1.1-1.5c1.4-1.4,3.1-2.1,5.2-2.1
				c2.1,0,3.8,0.7,5.2,2.1c0.5,0.5,0.8,1,1.1,1.5s0.4,1.1,0.6,1.7c0.1,0.6,0.2,1.4,0.2,2.2c0,0.8,0,1.8,0,2.8
				S1263.7,263.7,1263.7,264.6z M1261.5,259c0-0.7-0.1-1.4-0.2-1.9c-0.1-0.5-0.2-1-0.4-1.3c-0.2-0.4-0.4-0.7-0.8-1
				c-0.4-0.5-1-0.8-1.6-1.1c-0.6-0.3-1.3-0.4-1.9-0.4c-0.7,0-1.3,0.1-1.9,0.4c-0.6,0.3-1.1,0.6-1.6,1.1c-0.3,0.3-0.6,0.7-0.8,1
				c-0.2,0.4-0.3,0.8-0.4,1.3c-0.1,0.5-0.2,1.1-0.2,1.9c0,0.7,0,1.6,0,2.7c0,1.1,0,2,0,2.7c0,0.7,0.1,1.4,0.2,1.9
				c0.1,0.5,0.2,1,0.4,1.3c0.2,0.4,0.4,0.7,0.8,1c0.4,0.5,1,0.8,1.6,1.1c0.6,0.3,1.3,0.4,1.9,0.4c0.7,0,1.3-0.1,1.9-0.4
				c0.6-0.3,1.1-0.6,1.6-1.1c0.3-0.3,0.6-0.7,0.8-1s0.3-0.8,0.4-1.3s0.2-1.1,0.2-1.9c0-0.7,0-1.6,0-2.7
				C1261.5,260.6,1261.5,259.7,1261.5,259z"/>
			<path class="st4" d="M1284,271.9v-15.4l-5.6,12.2h-1.9l-5.6-12.2v15.4h-2.2v-20.3h2.2l6.6,14.4l6.4-14.4h2.2v20.3H1284z"/>
			<path class="st4" d="M1298.2,271.9V270l8-10.2c0.4-0.5,0.7-1,0.9-1.5c0.2-0.5,0.3-1,0.3-1.5c0-1.1-0.3-2-0.9-2.7
				c-0.6-0.7-1.5-1-2.6-1c-0.5,0-0.9,0.1-1.4,0.2c-0.4,0.1-0.8,0.4-1.1,0.7c-0.3,0.3-0.6,0.7-0.8,1.2c-0.2,0.5-0.3,1-0.3,1.7h-2.1
				c0-0.8,0.1-1.5,0.4-2.2c0.3-0.7,0.6-1.3,1.1-1.7c0.5-0.5,1.1-0.9,1.8-1.1c0.7-0.3,1.5-0.4,2.3-0.4c0.8,0,1.6,0.1,2.3,0.4
				s1.3,0.6,1.8,1.1c0.5,0.5,0.9,1.1,1.1,1.7c0.3,0.7,0.4,1.4,0.4,2.3c0,0.8-0.1,1.5-0.4,2.1c-0.3,0.6-0.7,1.3-1.2,2l-7.1,9.1h8.7
				v1.8H1298.2z"/>
		</g>
		<g>
			<g>
				<path class="st4" d="M1199.1,292.7v-14.4l-3,2.7V279l3-2.6h1.6v16.2H1199.1z"/>
				<path class="st4" d="M1206.7,292.7v-1.5l6.4-8.1c0.3-0.4,0.5-0.8,0.7-1.2c0.2-0.4,0.2-0.8,0.2-1.2c0-0.9-0.2-1.6-0.7-2.1
					c-0.5-0.5-1.2-0.8-2.1-0.8c-0.4,0-0.7,0.1-1.1,0.2c-0.3,0.1-0.6,0.3-0.9,0.5c-0.3,0.2-0.5,0.6-0.6,0.9s-0.2,0.8-0.2,1.3h-1.6
					c0-0.6,0.1-1.2,0.3-1.8s0.5-1,0.9-1.4c0.4-0.4,0.9-0.7,1.4-0.9c0.5-0.2,1.2-0.3,1.8-0.3c0.7,0,1.3,0.1,1.8,0.3s1,0.5,1.4,0.9
					c0.4,0.4,0.7,0.8,0.9,1.4s0.3,1.1,0.3,1.8c0,0.7-0.1,1.2-0.3,1.7c-0.2,0.5-0.5,1-1,1.6l-5.7,7.2h7v1.5H1206.7z"/>
				<path class="st4" d="M1219,280.1v-3.7h2v1.9L1219,280.1z"/>
				<path class="st4" d="M1236.9,292.7l-2.7-4.4l-2.7,4.4h-2l3.8-5.7l-3.6-5.5h2l2.6,4.1l2.5-4.1h2l-3.6,5.5l3.8,5.7H1236.9z"/>
				<path class="st4" d="M1251.2,292.7v-14.4l-3,2.7V279l3-2.6h1.6v16.2H1251.2z"/>
				<path class="st4" d="M1258.7,292.7v-1.5l6.4-8.1c0.3-0.4,0.5-0.8,0.7-1.2c0.2-0.4,0.2-0.8,0.2-1.2c0-0.9-0.2-1.6-0.7-2.1
					c-0.5-0.5-1.2-0.8-2.1-0.8c-0.4,0-0.7,0.1-1.1,0.2c-0.3,0.1-0.6,0.3-0.9,0.5c-0.3,0.2-0.5,0.6-0.6,0.9s-0.2,0.8-0.2,1.3h-1.6
					c0-0.6,0.1-1.2,0.3-1.8s0.5-1,0.9-1.4c0.4-0.4,0.9-0.7,1.4-0.9c0.5-0.2,1.2-0.3,1.8-0.3c0.7,0,1.3,0.1,1.8,0.3s1,0.5,1.4,0.9
					c0.4,0.4,0.7,0.8,0.9,1.4s0.3,1.1,0.3,1.8c0,0.7-0.1,1.2-0.3,1.7c-0.2,0.5-0.5,1-1,1.6l-5.7,7.2h7v1.5H1258.7z"/>
				<path class="st4" d="M1271.1,280.1v-3.7h2v1.9L1271.1,280.1z"/>
			</g>
		</g>
		<g>
			<path class="st4" d="M880.6,431.8v-14.4l-3,2.7v-1.9l3-2.6h1.6v16.2H880.6z"/>
			<path class="st4" d="M896.7,429.3c-0.3,0.6-0.6,1-1,1.4c-0.4,0.4-0.9,0.7-1.5,0.9c-0.6,0.2-1.2,0.3-1.9,0.3
				c-0.6,0-1.2-0.1-1.8-0.3s-1.1-0.4-1.5-0.8c-0.4-0.4-0.8-0.8-1-1.3c-0.3-0.5-0.4-1.2-0.4-1.9h1.6c0,0.5,0.1,0.9,0.3,1.3
				c0.2,0.4,0.4,0.6,0.7,0.9c0.3,0.2,0.6,0.4,1,0.5c0.4,0.1,0.7,0.2,1.1,0.2c0.9,0,1.6-0.3,2.2-0.8c0.6-0.5,0.9-1.3,0.9-2.3
				c0-1-0.3-1.8-0.8-2.3c-0.5-0.6-1.3-0.8-2.4-0.8h-0.3v-1.5h0.3c1,0,1.7-0.3,2.2-0.8c0.5-0.5,0.7-1.2,0.7-2.1c0-1-0.3-1.7-0.8-2.2
				c-0.5-0.5-1.2-0.7-2-0.7c-0.9,0-1.5,0.2-2.1,0.7c-0.5,0.5-0.8,1.1-0.9,2h-1.6c0-0.7,0.2-1.2,0.4-1.8c0.3-0.5,0.6-1,1-1.3
				c0.4-0.4,0.9-0.6,1.4-0.8c0.5-0.2,1.1-0.3,1.7-0.3c0.7,0,1.3,0.1,1.8,0.3c0.6,0.2,1,0.5,1.4,0.9c0.4,0.4,0.7,0.8,0.9,1.4
				c0.2,0.5,0.3,1.1,0.3,1.8c0,1.7-0.7,2.9-2.2,3.6c1.7,0.6,2.5,1.9,2.5,4C897.1,428.1,897,428.7,896.7,429.3z"/>
			<path class="st4" d="M900.5,419.2v-3.7h2v1.9L900.5,419.2z"/>
			<path class="st4" d="M918.3,431.8l-2.7-4.4l-2.7,4.4h-2l3.8-5.7l-3.6-5.5h2l2.6,4.1l2.5-4.1h2l-3.6,5.5l3.8,5.7H918.3z"/>
			<path class="st4" d="M932.6,431.8v-14.4l-3,2.7v-1.9l3-2.6h1.6v16.2H932.6z"/>
			<path class="st4" d="M948.7,429.3c-0.3,0.6-0.6,1-1,1.4c-0.4,0.4-0.9,0.7-1.5,0.9c-0.6,0.2-1.2,0.3-1.9,0.3
				c-0.6,0-1.2-0.1-1.8-0.3s-1.1-0.4-1.5-0.8c-0.4-0.4-0.8-0.8-1-1.3c-0.3-0.5-0.4-1.2-0.4-1.9h1.6c0,0.5,0.1,0.9,0.3,1.3
				c0.2,0.4,0.4,0.6,0.7,0.9c0.3,0.2,0.6,0.4,1,0.5c0.4,0.1,0.7,0.2,1.1,0.2c0.9,0,1.6-0.3,2.2-0.8c0.6-0.5,0.9-1.3,0.9-2.3
				c0-1-0.3-1.8-0.8-2.3c-0.5-0.6-1.3-0.8-2.4-0.8h-0.3v-1.5h0.3c1,0,1.7-0.3,2.2-0.8c0.5-0.5,0.7-1.2,0.7-2.1c0-1-0.3-1.7-0.8-2.2
				c-0.5-0.5-1.2-0.7-2-0.7c-0.9,0-1.5,0.2-2.1,0.7c-0.5,0.5-0.8,1.1-0.9,2h-1.6c0-0.7,0.2-1.2,0.4-1.8c0.3-0.5,0.6-1,1-1.3
				c0.4-0.4,0.9-0.6,1.4-0.8c0.5-0.2,1.1-0.3,1.7-0.3c0.7,0,1.3,0.1,1.8,0.3c0.6,0.2,1,0.5,1.4,0.9c0.4,0.4,0.7,0.8,0.9,1.4
				c0.2,0.5,0.3,1.1,0.3,1.8c0,1.7-0.7,2.9-2.2,3.6c1.7,0.6,2.5,1.9,2.5,4C949.1,428.1,949,428.7,948.7,429.3z"/>
			<path class="st4" d="M952.5,419.2v-3.7h2v1.9L952.5,419.2z"/>
		</g>
		<g>
			<path class="st4" d="M270,680.8v-15.2l-5.5,12h-1.8l-5.6-12v15.2H255v-20h2.1l6.5,14.2l6.3-14.2h2.1v20H270z"/>
			<path class="st4" d="M289.5,680.8l-1.6-4.5h-8.7l-1.6,4.5h-2.3l7.3-20h1.8l7.3,20H289.5z M283.6,663.9l-3.8,10.5h7.5L283.6,663.9
				z"/>
			<path class="st4" d="M306.6,677.7c-0.3,0.7-0.8,1.3-1.4,1.8c-0.6,0.5-1.3,0.9-2.2,1.1c-0.9,0.3-1.8,0.4-2.8,0.4
				c-1.5,0-2.8-0.2-3.8-0.6c-1.1-0.4-2.1-1.1-3-2l1.5-1.5c0.8,0.8,1.7,1.4,2.5,1.7c0.8,0.3,1.8,0.5,2.9,0.5c1.5,0,2.6-0.3,3.5-1
				c0.8-0.6,1.3-1.6,1.3-2.7c0-0.5-0.1-1-0.2-1.4c-0.2-0.4-0.4-0.8-0.7-1.1c-0.3-0.3-0.6-0.5-1-0.6c-0.3-0.1-0.9-0.2-1.6-0.4
				l-2.3-0.4c-1.6-0.3-2.8-0.8-3.7-1.5c-1-0.9-1.5-2.1-1.5-3.7c0-0.8,0.1-1.6,0.4-2.3c0.3-0.7,0.7-1.3,1.3-1.8
				c0.6-0.5,1.2-0.9,2-1.1c0.8-0.3,1.7-0.4,2.7-0.4c1.3,0,2.4,0.2,3.3,0.5c0.9,0.3,1.8,0.9,2.7,1.7l-1.4,1.4c-0.6-0.6-1.3-1-2-1.3
				c-0.7-0.3-1.6-0.4-2.7-0.4c-1.3,0-2.4,0.3-3.1,1c-0.7,0.7-1.1,1.6-1.1,2.7c0,1,0.3,1.8,0.9,2.3c0.3,0.3,0.7,0.5,1.2,0.7
				c0.5,0.2,1,0.3,1.5,0.4l2.2,0.3c0.5,0.1,0.9,0.2,1.2,0.2c0.4,0.1,0.7,0.2,1,0.3c0.3,0.1,0.5,0.2,0.8,0.4c0.2,0.1,0.5,0.3,0.7,0.5
				c1.1,1,1.7,2.3,1.7,4C307.1,676.2,306.9,677,306.6,677.7z"/>
			<path class="st4" d="M317.4,662.7v18.1h-2.1v-18.1h-5.8v-1.9h13.7v1.9H317.4z"/>
			<path class="st4" d="M326.9,680.8v-20h12.4v1.9H329v7h8.8v1.9H329v7.2h10.3v1.9H326.9z"/>
			<path class="st4" d="M355.2,680.8l-4.5-8.9h-4.8v8.9h-2.1v-20h7.7c0.9,0,1.7,0.1,2.4,0.4c0.7,0.3,1.4,0.6,1.9,1.1
				c0.5,0.5,0.9,1.1,1.2,1.8c0.3,0.7,0.4,1.5,0.4,2.3c0,1.5-0.4,2.7-1.2,3.6s-1.9,1.5-3.1,1.8l4.7,9.1H355.2z M354.1,663.6
				c-0.7-0.6-1.7-0.9-2.9-0.9h-5.3v7.3h5.3c1.2,0,2.1-0.3,2.9-0.9c0.7-0.6,1.1-1.5,1.1-2.7C355.2,665.2,354.8,664.3,354.1,663.6z"/>
		</g>
		<g>
			<path class="st4" d="M287.8,702.7c-0.3,0.7-0.7,1.3-1.2,1.7s-1.1,0.8-1.9,1.1c-0.7,0.2-1.5,0.4-2.4,0.4h-7.8v-20h7.5
				c0.9,0,1.7,0.1,2.4,0.4s1.4,0.6,1.9,1.1c0.5,0.5,0.9,1,1.2,1.7s0.4,1.4,0.4,2.2c0,1.1-0.3,2-0.8,2.7s-1.3,1.3-2.1,1.6
				c1,0.4,1.7,0.9,2.3,1.7c0.6,0.8,0.9,1.8,0.9,3C288.2,701.2,288.1,702,287.8,702.7z M285.5,689.7c-0.2-0.4-0.5-0.8-0.8-1.1
				c-0.3-0.3-0.8-0.5-1.2-0.6c-0.5-0.1-1-0.2-1.6-0.2h-5.2v6.9h5.2c0.6,0,1.1-0.1,1.6-0.2c0.5-0.1,0.9-0.4,1.2-0.6
				c0.3-0.3,0.6-0.6,0.8-1.1c0.2-0.4,0.3-1,0.3-1.6S285.7,690.1,285.5,689.7z M285,697.6c-0.7-0.7-1.7-1-2.9-1h-5.4v7.3h5.4
				c1.2,0,2.2-0.3,2.9-1c0.7-0.7,1.1-1.6,1.1-2.7S285.7,698.3,285,697.6z"/>
			<path class="st4" d="M304.9,705.9l-1.6-4.5h-8.7l-1.6,4.5h-2.3l7.3-20h1.8l7.3,20H304.9z M299,688.9l-3.8,10.5h7.5L299,688.9z"/>
			<path class="st4" d="M314.6,687.8v18.1h-2.1v-18.1h-5.8v-1.9h13.7v1.9H314.6z"/>
			<path class="st4" d="M335.7,705.9v-9.1h-9.5v9.1h-2.1v-20h2.1v8.9h9.5v-8.9h2.1v20H335.7z"/>
		</g>
		<g>
			<path class="st4" d="M419,748.9h-1.4l-3.2-11.5l-3.2,11.5h-1.4l-3.7-14.4h1.6l2.8,11.6l3.2-11.6h1.4l3.2,11.6l2.8-11.6h1.6
				L419,748.9z"/>
			<path class="st4" d="M429.7,748.9v-1c-0.4,0.4-0.8,0.7-1.2,0.8c-0.4,0.2-1,0.2-1.6,0.2c-0.7,0-1.3-0.1-1.7-0.2s-0.8-0.4-1.1-0.7
				c-0.2-0.2-0.4-0.5-0.6-0.9s-0.2-0.7-0.2-1.1c0-0.9,0.3-1.6,0.9-2.1s1.4-0.8,2.6-0.8h3v-1c0-0.7-0.2-1.3-0.6-1.6
				c-0.4-0.4-1-0.5-2-0.5c-0.6,0-1.2,0.1-1.5,0.3s-0.7,0.5-1,0.9l-1-0.9c0.4-0.6,0.9-1,1.5-1.2c0.5-0.2,1.2-0.3,2-0.3
				c1.3,0,2.4,0.3,3,0.8c0.7,0.6,1,1.4,1,2.5v6.8H429.7z M429.7,744.3h-2.8c-1.5,0-2.2,0.6-2.2,1.8c0,0.6,0.2,1,0.5,1.3
				c0.4,0.3,0.9,0.4,1.7,0.4c0.4,0,0.8,0,1.2-0.1s0.7-0.3,1-0.6c0.3-0.3,0.5-0.9,0.5-1.7V744.3z"/>
			<path class="st4" d="M437.2,748.9c-0.9,0-1.5-0.3-1.9-0.8c-0.4-0.5-0.6-1.1-0.6-1.9v-11.8h1.5v11.7c0,0.5,0.1,0.9,0.3,1.1
				c0.2,0.2,0.5,0.4,1.1,0.4h0.8v1.3H437.2z"/>
			<path class="st4" d="M447.3,748.9l-3.2-5.1l-1.9,2.2v2.9h-1.5v-14.4h1.5v9.6l4.5-5.2h1.8l-3.4,3.8l4,6.2H447.3z"/>
			<path class="st4" d="M451.3,744.1v-1.4h5.5v1.4H451.3z"/>
			<path class="st4" d="M460.4,748.9v-14.4h1.5v14.4H460.4z"/>
			<path class="st4" d="M472.3,748.9v-6.1c0-0.9-0.2-1.6-0.7-2s-1-0.7-1.8-0.7s-1.4,0.2-1.8,0.7c-0.4,0.4-0.7,1.1-0.7,2v6.1h-1.5
				v-10h1.5v1.1c0.4-0.4,0.8-0.7,1.2-0.9c0.5-0.2,1-0.3,1.6-0.3c1.1,0,1.9,0.3,2.6,0.9c0.7,0.7,1,1.6,1,2.8v6.4H472.3z"/>
		</g>
		<g>
			<path class="st4" d="M423.1,764.1c-0.3,0.5-0.7,1-1.1,1.3c-0.4,0.4-0.9,0.6-1.5,0.8c-0.6,0.2-1.2,0.3-1.8,0.3
				c-0.7,0-1.4-0.1-2-0.4c-0.6-0.3-1.2-0.6-1.7-1.1c-0.3-0.3-0.6-0.7-0.8-1.1c-0.2-0.4-0.3-0.8-0.4-1.2c-0.1-0.5-0.1-1-0.2-1.5
				s0-1.2,0-2c0-0.8,0-1.4,0-2c0-0.6,0.1-1.1,0.2-1.5s0.2-0.9,0.4-1.2c0.2-0.4,0.4-0.7,0.8-1.1c0.5-0.5,1-0.9,1.7-1.1
				c0.6-0.3,1.3-0.4,2-0.4c0.6,0,1.2,0.1,1.8,0.3c0.6,0.2,1,0.5,1.5,0.8s0.8,0.8,1.1,1.3c0.3,0.5,0.5,1.1,0.6,1.8h-1.6
				c-0.2-0.9-0.6-1.6-1.2-2.1s-1.3-0.8-2.2-0.8c-0.5,0-0.9,0.1-1.4,0.3c-0.4,0.2-0.8,0.4-1.1,0.7c-0.2,0.2-0.4,0.5-0.5,0.7
				c-0.1,0.3-0.2,0.6-0.3,1s-0.1,0.8-0.1,1.3c0,0.5,0,1.2,0,1.9c0,0.8,0,1.4,0,1.9c0,0.5,0.1,1,0.1,1.3c0.1,0.4,0.2,0.7,0.3,1
				c0.1,0.3,0.3,0.5,0.5,0.7c0.3,0.3,0.7,0.6,1.1,0.7c0.4,0.2,0.9,0.3,1.4,0.3c0.9,0,1.7-0.3,2.3-0.8c0.6-0.5,1-1.2,1.2-2.1h1.5
				C423.6,763,423.4,763.6,423.1,764.1z"/>
			<path class="st4" d="M429.3,766.5c-0.9,0-1.5-0.3-1.9-0.8c-0.4-0.5-0.6-1.1-0.6-1.9V752h1.5v11.7c0,0.5,0.1,0.9,0.3,1.1
				c0.2,0.2,0.5,0.4,1.1,0.4h0.8v1.3H429.3z"/>
			<path class="st4" d="M439.8,763.6c-0.2,0.7-0.5,1.3-1,1.8c-0.4,0.4-0.8,0.6-1.2,0.8c-0.5,0.2-1,0.3-1.6,0.3
				c-0.6,0-1.1-0.1-1.6-0.3c-0.5-0.2-0.9-0.5-1.2-0.8c-0.3-0.3-0.5-0.5-0.6-0.8s-0.3-0.6-0.4-1s-0.1-0.7-0.2-1
				c0-0.4-0.1-0.7-0.1-1.1c0-0.4,0-0.8,0.1-1.1s0.1-0.7,0.2-1.1c0.1-0.3,0.2-0.6,0.4-1s0.4-0.6,0.6-0.8c0.4-0.4,0.8-0.6,1.2-0.8
				c0.5-0.2,1-0.3,1.6-0.3c0.6,0,1.1,0.1,1.6,0.3c0.5,0.2,0.9,0.5,1.2,0.8c0.5,0.5,0.8,1.1,1,1.8s0.2,1.4,0.2,2.2
				C440.1,762.2,440,763,439.8,763.6z M438.6,760.6c0-0.3,0-0.6-0.1-0.8c-0.1-0.3-0.1-0.5-0.2-0.8c-0.1-0.2-0.3-0.4-0.4-0.6
				c-0.5-0.5-1.1-0.7-1.8-0.7c-0.7,0-1.3,0.2-1.8,0.7c-0.2,0.2-0.3,0.4-0.4,0.6c-0.1,0.2-0.2,0.5-0.2,0.8c-0.1,0.3-0.1,0.5-0.1,0.8
				c0,0.3,0,0.6,0,0.9c0,0.3,0,0.6,0,0.8c0,0.3,0.1,0.6,0.1,0.8c0.1,0.3,0.1,0.5,0.2,0.8c0.1,0.2,0.2,0.5,0.4,0.6
				c0.5,0.5,1.1,0.7,1.8,0.7c0.7,0,1.3-0.2,1.8-0.7c0.2-0.2,0.3-0.4,0.4-0.6c0.1-0.2,0.2-0.5,0.2-0.8c0.1-0.3,0.1-0.5,0.1-0.8
				c0-0.3,0-0.6,0-0.8C438.6,761.2,438.6,760.9,438.6,760.6z"/>
			<path class="st4" d="M450.1,764.8c-0.2,0.4-0.5,0.7-0.8,1c-0.4,0.3-0.8,0.5-1.3,0.6s-1,0.2-1.6,0.2c-0.9,0-1.6-0.1-2.3-0.3
				s-1.3-0.6-1.8-1.1l1-1c0.4,0.4,0.9,0.7,1.4,0.9c0.5,0.2,1.1,0.3,1.7,0.3c0.8,0,1.5-0.1,1.9-0.4c0.5-0.3,0.7-0.7,0.7-1.3
				c0-0.4-0.1-0.8-0.4-1s-0.7-0.4-1.3-0.4l-1.6-0.1c-1-0.1-1.7-0.3-2.2-0.8c-0.5-0.4-0.8-1.1-0.8-1.9c0-0.5,0.1-0.9,0.3-1.2
				c0.2-0.4,0.4-0.7,0.8-0.9c0.3-0.3,0.7-0.4,1.2-0.6s0.9-0.2,1.5-0.2c0.7,0,1.4,0.1,2,0.3c0.6,0.2,1.1,0.4,1.6,0.8l-1,1
				c-0.4-0.3-0.8-0.5-1.2-0.6c-0.5-0.1-0.9-0.2-1.4-0.2c-0.7,0-1.3,0.1-1.7,0.4c-0.4,0.3-0.6,0.7-0.6,1.2c0,0.4,0.1,0.8,0.4,1
				s0.7,0.4,1.3,0.4l1.6,0.1c0.4,0,0.8,0.1,1.2,0.2c0.4,0.1,0.7,0.3,0.9,0.5c0.3,0.2,0.5,0.5,0.6,0.8c0.1,0.3,0.2,0.7,0.2,1.2
				C450.4,764,450.3,764.5,450.1,764.8z"/>
			<path class="st4" d="M454.1,761.9c0,1.1,0.2,1.9,0.7,2.5c0.5,0.6,1.2,0.9,2.2,0.9c0.6,0,1.1-0.1,1.4-0.3c0.4-0.2,0.8-0.5,1.2-0.9
				l1,0.9c-0.3,0.3-0.5,0.5-0.8,0.7c-0.3,0.2-0.5,0.4-0.8,0.5c-0.3,0.1-0.6,0.2-0.9,0.3s-0.7,0.1-1.1,0.1c-0.7,0-1.3-0.1-1.8-0.3
				c-0.5-0.2-1-0.5-1.4-0.9c-0.4-0.4-0.7-0.9-0.9-1.6c-0.2-0.6-0.3-1.4-0.3-2.3c0-1.6,0.4-2.9,1.1-3.8c0.7-0.9,1.7-1.3,3-1.3
				c1.3,0,2.3,0.4,3,1.3c0.7,0.9,1.1,2,1.1,3.5v0.7H454.1z M459.3,760.2c0-0.1,0-0.3-0.1-0.4c0-0.1,0-0.2-0.1-0.4
				c0-0.1-0.1-0.2-0.1-0.4c-0.2-0.5-0.5-0.8-0.9-1.1c-0.4-0.3-0.9-0.4-1.4-0.4s-1,0.1-1.4,0.4c-0.4,0.3-0.7,0.6-0.9,1.1
				c-0.1,0.3-0.2,0.5-0.2,0.7c0,0.2-0.1,0.5-0.1,0.9h5.3C459.4,760.6,459.4,760.4,459.3,760.2z"/>
			<path class="st4" d="M466.7,766.5c-0.4,0-0.8-0.1-1.1-0.2c-0.3-0.1-0.6-0.3-0.8-0.6c-0.2-0.2-0.4-0.5-0.5-0.9s-0.2-0.7-0.2-1
				v-6.1h-1.3v-1.1h1.3v-3.1h1.5v3.1h2.1v1.1h-2.1v6.1c0,0.5,0.1,0.8,0.3,1.1c0.2,0.3,0.6,0.4,1,0.4h0.8v1.3H466.7z"/>
		</g>
		<g>
			<path class="st4" d="M1240.9,568.1h-1.4l-3.2-11.5l-3.2,11.5h-1.4l-3.7-14.4h1.6l2.8,11.6l3.2-11.6h1.4l3.2,11.6l2.8-11.6h1.6
				L1240.9,568.1z"/>
			<path class="st4" d="M1251.5,568.1v-1c-0.4,0.4-0.8,0.7-1.2,0.8s-1,0.2-1.6,0.2c-0.7,0-1.3-0.1-1.7-0.2s-0.8-0.4-1.1-0.7
				c-0.2-0.2-0.4-0.5-0.6-0.9c-0.1-0.4-0.2-0.7-0.2-1.1c0-0.9,0.3-1.6,0.9-2.1s1.4-0.8,2.6-0.8h3v-1c0-0.7-0.2-1.3-0.6-1.6
				c-0.4-0.4-1-0.5-2-0.5c-0.6,0-1.2,0.1-1.5,0.3s-0.7,0.5-1,0.9l-1-0.9c0.4-0.6,0.9-1,1.5-1.2c0.5-0.2,1.2-0.3,2-0.3
				c1.3,0,2.4,0.3,3,0.8c0.7,0.6,1,1.4,1,2.5v6.8H1251.5z M1251.5,563.5h-2.8c-1.5,0-2.2,0.6-2.2,1.8c0,0.6,0.2,1,0.5,1.3
				c0.4,0.3,0.9,0.4,1.7,0.4c0.4,0,0.8,0,1.2-0.1s0.7-0.3,1-0.6c0.3-0.3,0.5-0.9,0.5-1.7V563.5z"/>
			<path class="st4" d="M1259,568.1c-0.9,0-1.5-0.3-1.9-0.8c-0.4-0.5-0.6-1.1-0.6-1.9v-11.8h1.5v11.7c0,0.5,0.1,0.9,0.3,1.1
				c0.2,0.2,0.5,0.4,1.1,0.4h0.8v1.3H1259z"/>
			<path class="st4" d="M1269.1,568.1l-3.2-5.1l-1.9,2.2v2.9h-1.5v-14.4h1.5v9.6l4.5-5.2h1.8l-3.4,3.8l4,6.2H1269.1z"/>
			<path class="st4" d="M1273.1,563.4V562h5.5v1.4H1273.1z"/>
			<path class="st4" d="M1282.3,568.1v-14.4h1.5v14.4H1282.3z"/>
			<path class="st4" d="M1294.1,568.1V562c0-0.9-0.2-1.6-0.7-2s-1-0.7-1.8-0.7s-1.4,0.2-1.8,0.7c-0.4,0.4-0.7,1.1-0.7,2v6.1h-1.5
				v-10h1.5v1.1c0.4-0.4,0.8-0.7,1.2-0.9c0.5-0.2,1-0.3,1.6-0.3c1.1,0,1.9,0.3,2.6,0.9c0.7,0.7,1,1.6,1,2.8v6.4H1294.1z"/>
		</g>
		<g>
			<path class="st4" d="M1244.9,583.4c-0.3,0.5-0.7,1-1.1,1.3c-0.4,0.4-0.9,0.6-1.5,0.8s-1.2,0.3-1.8,0.3c-0.7,0-1.4-0.1-2-0.4
				c-0.6-0.3-1.2-0.6-1.7-1.1c-0.3-0.3-0.6-0.7-0.8-1.1c-0.2-0.4-0.3-0.8-0.4-1.2c-0.1-0.5-0.1-1-0.2-1.5s0-1.2,0-2c0-0.8,0-1.4,0-2
				c0-0.6,0.1-1.1,0.2-1.5s0.2-0.9,0.4-1.2c0.2-0.4,0.4-0.7,0.8-1.1c0.5-0.5,1-0.9,1.7-1.1c0.6-0.3,1.3-0.4,2-0.4
				c0.6,0,1.2,0.1,1.8,0.3s1,0.5,1.5,0.8s0.8,0.8,1.1,1.3s0.5,1.1,0.6,1.8h-1.6c-0.2-0.9-0.6-1.6-1.2-2.1s-1.3-0.8-2.2-0.8
				c-0.5,0-0.9,0.1-1.4,0.3c-0.4,0.2-0.8,0.4-1.1,0.7c-0.2,0.2-0.4,0.5-0.5,0.7c-0.1,0.3-0.2,0.6-0.3,1s-0.1,0.8-0.1,1.3
				c0,0.5,0,1.2,0,1.9c0,0.8,0,1.4,0,1.9s0.1,1,0.1,1.3c0.1,0.4,0.2,0.7,0.3,1c0.1,0.3,0.3,0.5,0.5,0.7c0.3,0.3,0.7,0.6,1.1,0.7
				c0.4,0.2,0.9,0.3,1.4,0.3c0.9,0,1.7-0.3,2.3-0.8s1-1.2,1.2-2.1h1.5C1245.4,582.2,1245.2,582.8,1244.9,583.4z"/>
			<path class="st4" d="M1251.2,585.7c-0.9,0-1.5-0.3-1.9-0.8c-0.4-0.5-0.6-1.1-0.6-1.9v-11.8h1.5V583c0,0.5,0.1,0.9,0.3,1.1
				c0.2,0.2,0.5,0.4,1.1,0.4h0.8v1.3H1251.2z"/>
			<path class="st4" d="M1261.7,582.9c-0.2,0.7-0.5,1.3-1,1.8c-0.4,0.4-0.8,0.6-1.2,0.8c-0.5,0.2-1,0.3-1.6,0.3
				c-0.6,0-1.1-0.1-1.6-0.3c-0.5-0.2-0.9-0.5-1.2-0.8c-0.3-0.3-0.5-0.5-0.6-0.8s-0.3-0.6-0.4-1s-0.1-0.7-0.2-1
				c0-0.4-0.1-0.7-0.1-1.1c0-0.4,0-0.8,0.1-1.1c0-0.4,0.1-0.7,0.2-1.1c0.1-0.3,0.2-0.6,0.4-1s0.4-0.6,0.6-0.8
				c0.4-0.4,0.8-0.6,1.2-0.8c0.5-0.2,1-0.3,1.6-0.3c0.6,0,1.1,0.1,1.6,0.3c0.5,0.2,0.9,0.5,1.2,0.8c0.5,0.5,0.8,1.1,1,1.8
				s0.2,1.4,0.2,2.2C1261.9,581.5,1261.8,582.2,1261.7,582.9z M1260.4,579.9c0-0.3,0-0.6-0.1-0.8c-0.1-0.3-0.1-0.5-0.2-0.8
				c-0.1-0.2-0.3-0.4-0.4-0.6c-0.5-0.5-1.1-0.7-1.8-0.7c-0.7,0-1.3,0.2-1.8,0.7c-0.2,0.2-0.3,0.4-0.4,0.6s-0.2,0.5-0.2,0.8
				c-0.1,0.3-0.1,0.5-0.1,0.8s0,0.6,0,0.9c0,0.3,0,0.6,0,0.8s0.1,0.6,0.1,0.8c0.1,0.3,0.1,0.5,0.2,0.8s0.2,0.5,0.4,0.6
				c0.5,0.5,1.1,0.7,1.8,0.7c0.7,0,1.3-0.2,1.8-0.7c0.2-0.2,0.3-0.4,0.4-0.6c0.1-0.2,0.2-0.5,0.2-0.8c0.1-0.3,0.1-0.5,0.1-0.8
				s0-0.6,0-0.8C1260.4,580.5,1260.4,580.2,1260.4,579.9z"/>
			<path class="st4" d="M1271.9,584.1c-0.2,0.4-0.5,0.7-0.8,1c-0.4,0.3-0.8,0.5-1.3,0.6c-0.5,0.1-1,0.2-1.7,0.2
				c-0.8,0-1.6-0.1-2.3-0.3s-1.3-0.6-1.8-1.1l1-1c0.4,0.4,0.9,0.7,1.4,0.9c0.5,0.2,1.1,0.3,1.7,0.3c0.8,0,1.5-0.1,1.9-0.4
				c0.5-0.3,0.7-0.7,0.7-1.3c0-0.4-0.1-0.8-0.4-1c-0.3-0.2-0.7-0.4-1.3-0.4l-1.6-0.1c-1-0.1-1.7-0.3-2.2-0.8
				c-0.5-0.4-0.8-1.1-0.8-1.9c0-0.5,0.1-0.9,0.3-1.2s0.4-0.7,0.8-0.9c0.3-0.3,0.7-0.4,1.2-0.6s0.9-0.2,1.5-0.2c0.7,0,1.4,0.1,2,0.3
				c0.6,0.2,1.1,0.4,1.6,0.8l-1,1c-0.4-0.3-0.8-0.5-1.2-0.6c-0.5-0.1-0.9-0.2-1.4-0.2c-0.7,0-1.3,0.1-1.7,0.4
				c-0.4,0.3-0.6,0.7-0.6,1.2c0,0.4,0.1,0.8,0.4,1c0.3,0.2,0.7,0.4,1.3,0.4l1.6,0.1c0.4,0,0.8,0.1,1.2,0.2c0.4,0.1,0.7,0.3,0.9,0.5
				c0.3,0.2,0.5,0.5,0.6,0.8c0.1,0.3,0.2,0.7,0.2,1.2C1272.2,583.3,1272.1,583.7,1271.9,584.1z"/>
			<path class="st4" d="M1276,581.1c0,1.1,0.2,1.9,0.7,2.5c0.5,0.6,1.2,0.9,2.2,0.9c0.6,0,1.1-0.1,1.4-0.3c0.4-0.2,0.8-0.5,1.2-0.9
				l1,0.9c-0.3,0.3-0.5,0.5-0.8,0.7s-0.5,0.4-0.8,0.5s-0.6,0.2-0.9,0.3c-0.3,0.1-0.7,0.1-1.1,0.1c-0.7,0-1.3-0.1-1.8-0.3
				c-0.5-0.2-1-0.5-1.4-0.9s-0.7-0.9-0.9-1.6c-0.2-0.6-0.3-1.4-0.3-2.3c0-1.6,0.4-2.9,1.1-3.8c0.7-0.9,1.7-1.3,3-1.3
				c1.3,0,2.3,0.4,3,1.3c0.7,0.9,1.1,2,1.1,3.5v0.7H1276z M1281.2,579.5c0-0.1,0-0.3-0.1-0.4c0-0.1,0-0.2-0.1-0.4
				c0-0.1-0.1-0.2-0.1-0.4c-0.2-0.5-0.5-0.8-0.9-1.1c-0.4-0.3-0.9-0.4-1.4-0.4s-1,0.1-1.4,0.4c-0.4,0.3-0.7,0.6-0.9,1.1
				c-0.1,0.3-0.2,0.5-0.2,0.7c0,0.2-0.1,0.5-0.1,0.9h5.3C1281.2,579.8,1281.2,579.7,1281.2,579.5z"/>
			<path class="st4" d="M1288.6,585.7c-0.4,0-0.8-0.1-1.1-0.2c-0.3-0.1-0.6-0.3-0.8-0.6c-0.2-0.2-0.4-0.5-0.5-0.9
				c-0.1-0.3-0.2-0.7-0.2-1v-6.1h-1.3v-1.1h1.3v-3.1h1.5v3.1h2.1v1.1h-2.1v6.1c0,0.5,0.1,0.8,0.3,1.1c0.2,0.3,0.6,0.4,1,0.4h0.8v1.3
				H1288.6z"/>
		</g>
	</g>
</g>
</svg>
